<svg width="72" height="72" viewBox="0 0 72 72" fill="none" xmlns="http://www.w3.org/2000/svg">
<path fill-rule="evenodd" clip-rule="evenodd" d="M54.6159 55.8184H60.7103V49.7319H54.6159V55.8184Z" fill="#00ACDC"/>
<path fill-rule="evenodd" clip-rule="evenodd" d="M47 55.8184H53.0939V49.7319H47V55.8184Z" fill="#002776"/>
<path fill-rule="evenodd" clip-rule="evenodd" d="M54.6159 48.2167H60.7103V42.1302H54.6159V48.2167Z" fill="#F9C822"/>
<path fill-rule="evenodd" clip-rule="evenodd" d="M5.29156 67.0442L12.863 59.4442L14.2799 60.8558L6.70843 68.4558L5.29156 67.0442Z" fill="#002776"/>
<path fill-rule="evenodd" clip-rule="evenodd" d="M18.7768 47.85C22.6639 47.85 25.8214 51.014 25.8214 54.925C25.8214 58.8359 22.6639 62 18.7768 62C14.8897 62 11.7321 58.8359 11.7321 54.925C11.7321 51.014 14.8897 47.85 18.7768 47.85ZM27.8214 54.925C27.8214 49.9165 23.7755 45.85 18.7768 45.85C13.778 45.85 9.73214 49.9165 9.73214 54.925C9.73214 59.9334 13.778 64 18.7768 64C23.7755 64 27.8214 59.9334 27.8214 54.925Z" fill="#002776"/>
<path fill-rule="evenodd" clip-rule="evenodd" d="M20.8406 4H58.1594L66 22.2947V61H30V59H64V23.5H15V43H13V22.2947L20.8406 4ZM15.5165 21.5H38.5V6H22.1594L15.5165 21.5ZM40.5 6V21.5H63.4835L56.8406 6H40.5Z" fill="#002776"/>
</svg>
