<svg width="610" height="78" viewBox="0 0 610 78" fill="none" xmlns="http://www.w3.org/2000/svg">
<path fill-rule="evenodd" clip-rule="evenodd" d="M0 77.0315H9.06234V67.9692H0V77.0315Z" fill="#8CABAB" fill-opacity="0.2"/>
<path fill-rule="evenodd" clip-rule="evenodd" d="M11.3271 65.7029H20.3903V56.6405H11.3271V65.7029Z" fill="#8CABAB" fill-opacity="0.2"/>
<path fill-rule="evenodd" clip-rule="evenodd" d="M22.6559 77.0307H31.7183V67.9684H22.6559V77.0307Z" fill="#8CABAB" fill-opacity="0.2"/>
<path fill-rule="evenodd" clip-rule="evenodd" d="M22.6559 54.3741H31.7183V45.3117H22.6559V54.3741Z" fill="#8CABAB" fill-opacity="0.2"/>
<path fill-rule="evenodd" clip-rule="evenodd" d="M33.9839 65.7029H43.0471V56.6405H33.9839V65.7029Z" fill="#8CABAB" fill-opacity="0.2"/>
<path fill-rule="evenodd" clip-rule="evenodd" d="M22.6559 65.7029H31.7183V56.6405H22.6559V65.7029Z" fill="#8CABAB" fill-opacity="0.2"/>
<path fill-rule="evenodd" clip-rule="evenodd" d="M45.3127 77.0307H54.375V67.9684H45.3127V77.0307Z" fill="#8CABAB" fill-opacity="0.2"/>
<path fill-rule="evenodd" clip-rule="evenodd" d="M45.3127 65.7029H54.375V56.6405H45.3127V65.7029Z" fill="#8CABAB" fill-opacity="0.2"/>
<path fill-rule="evenodd" clip-rule="evenodd" d="M56.6406 77.0307H65.703V67.9684H56.6406V77.0307Z" fill="#8CABAB" fill-opacity="0.2"/>
<path fill-rule="evenodd" clip-rule="evenodd" d="M45.3127 54.3741H54.375V45.3117H45.3127V54.3741Z" fill="#8CABAB" fill-opacity="0.2"/>
<path fill-rule="evenodd" clip-rule="evenodd" d="M56.6406 65.7029H65.703V56.6405H56.6406V65.7029Z" fill="#8CABAB" fill-opacity="0.2"/>
<path fill-rule="evenodd" clip-rule="evenodd" d="M79.2973 77.0307H88.3597V67.9684H79.2973V77.0307Z" fill="#8CABAB" fill-opacity="0.2"/>
<path fill-rule="evenodd" clip-rule="evenodd" d="M67.9678 77.0307H77.0309V67.9684H67.9678V77.0307Z" fill="#8CABAB" fill-opacity="0.2"/>
<path fill-rule="evenodd" clip-rule="evenodd" d="M79.2973 65.7029H88.3597V56.6405H79.2973V65.7029Z" fill="#8CABAB" fill-opacity="0.2"/>
<path fill-rule="evenodd" clip-rule="evenodd" d="M90.6249 77.0307H99.6872V67.9684H90.6249V77.0307Z" fill="#8CABAB" fill-opacity="0.2"/>
<path fill-rule="evenodd" clip-rule="evenodd" d="M67.9678 43.0461H77.0309V33.983H67.9678V43.0461Z" fill="#8CABAB" fill-opacity="0.2"/>
<path fill-rule="evenodd" clip-rule="evenodd" d="M90.6249 54.3741H99.6872V45.3117H90.6249V54.3741Z" fill="#8CABAB" fill-opacity="0.2"/>
<path fill-rule="evenodd" clip-rule="evenodd" d="M101.953 65.7029H111.015V56.6405H101.953V65.7029Z" fill="#8CABAB" fill-opacity="0.2"/>
<path fill-rule="evenodd" clip-rule="evenodd" d="M90.6249 65.7029H99.6872V56.6405H90.6249V65.7029Z" fill="#8CABAB" fill-opacity="0.2"/>
<path fill-rule="evenodd" clip-rule="evenodd" d="M113.281 77.0307H122.343V67.9684H113.281V77.0307Z" fill="#8CABAB" fill-opacity="0.2"/>
<path fill-rule="evenodd" clip-rule="evenodd" d="M101.953 77.0307H111.015V67.9684H101.953V77.0307Z" fill="#8CABAB" fill-opacity="0.2"/>
<path fill-rule="evenodd" clip-rule="evenodd" d="M113.281 65.7029H122.343V56.6405H113.281V65.7029Z" fill="#8CABAB" fill-opacity="0.2"/>
<path fill-rule="evenodd" clip-rule="evenodd" d="M124.609 77.0307H133.672V67.9684H124.609V77.0307Z" fill="#8CABAB" fill-opacity="0.2"/>
<path fill-rule="evenodd" clip-rule="evenodd" d="M113.281 54.3741H122.343V45.3117H113.281V54.3741Z" fill="#8CABAB" fill-opacity="0.2"/>
<path fill-rule="evenodd" clip-rule="evenodd" d="M124.609 43.0461H133.672V33.983H124.609V43.0461Z" fill="#8CABAB" fill-opacity="0.2"/>
<path fill-rule="evenodd" clip-rule="evenodd" d="M135.938 65.7029H145V56.6405H135.938V65.7029Z" fill="#8CABAB" fill-opacity="0.2"/>
<path fill-rule="evenodd" clip-rule="evenodd" d="M124.609 65.7029H133.672V56.6405H124.609V65.7029Z" fill="#8CABAB" fill-opacity="0.2"/>
<path fill-rule="evenodd" clip-rule="evenodd" d="M124.609 20.3903H133.672V11.328H124.609V20.3903Z" fill="#8CABAB" fill-opacity="0.2"/>
<path fill-rule="evenodd" clip-rule="evenodd" d="M135.938 54.3741H145V45.3117H135.938V54.3741Z" fill="#8CABAB" fill-opacity="0.2"/>
<path fill-rule="evenodd" clip-rule="evenodd" d="M147.266 77.0307H156.328V67.9684H147.266V77.0307Z" fill="#8CABAB" fill-opacity="0.2"/>
<path fill-rule="evenodd" clip-rule="evenodd" d="M135.938 77.0307H145V67.9684H135.938V77.0307Z" fill="#8CABAB" fill-opacity="0.2"/>
<path fill-rule="evenodd" clip-rule="evenodd" d="M147.266 65.7029H156.328V56.6405H147.266V65.7029Z" fill="#8CABAB" fill-opacity="0.2"/>
<path fill-rule="evenodd" clip-rule="evenodd" d="M158.593 77.0307H167.656V67.9684H158.593V77.0307Z" fill="#8CABAB" fill-opacity="0.2"/>
<path fill-rule="evenodd" clip-rule="evenodd" d="M147.266 54.3741H156.328V45.3117H147.266V54.3741Z" fill="#8CABAB" fill-opacity="0.2"/>
<path fill-rule="evenodd" clip-rule="evenodd" d="M158.593 65.7029H167.656V56.6405H158.593V65.7029Z" fill="#8CABAB" fill-opacity="0.2"/>
<path fill-rule="evenodd" clip-rule="evenodd" d="M181.249 77.0307H190.313V67.9684H181.249V77.0307Z" fill="#8CABAB" fill-opacity="0.2"/>
<path fill-rule="evenodd" clip-rule="evenodd" d="M169.921 77.0307H178.984V67.9684H169.921V77.0307Z" fill="#8CABAB" fill-opacity="0.2"/>
<path fill-rule="evenodd" clip-rule="evenodd" d="M181.249 65.7029H190.313V56.6405H181.249V65.7029Z" fill="#8CABAB" fill-opacity="0.2"/>
<path fill-rule="evenodd" clip-rule="evenodd" d="M181.249 9.06318H190.312V0H181.249V9.06318Z" fill="#8CABAB" fill-opacity="0.2"/>
<path fill-rule="evenodd" clip-rule="evenodd" d="M181.249 31.7182H190.313V22.6558H181.249V31.7182Z" fill="#8CABAB" fill-opacity="0.2"/>
<path fill-rule="evenodd" clip-rule="evenodd" d="M169.921 43.0461H178.984V33.983H169.921V43.0461Z" fill="#8CABAB" fill-opacity="0.2"/>
<path fill-rule="evenodd" clip-rule="evenodd" d="M192.578 77.0307H201.641V67.9684H192.578V77.0307Z" fill="#8CABAB" fill-opacity="0.2"/>
<path fill-rule="evenodd" clip-rule="evenodd" d="M203.906 65.7029H212.968V56.6405H203.906V65.7029Z" fill="#8CABAB" fill-opacity="0.2"/>
<path fill-rule="evenodd" clip-rule="evenodd" d="M192.578 65.7029H201.641V56.6405H192.578V65.7029Z" fill="#8CABAB" fill-opacity="0.2"/>
<path fill-rule="evenodd" clip-rule="evenodd" d="M215.233 77.0307H224.296V67.9684H215.233V77.0307Z" fill="#8CABAB" fill-opacity="0.2"/>
<path fill-rule="evenodd" clip-rule="evenodd" d="M203.906 77.0307H212.968V67.9684H203.906V77.0307Z" fill="#8CABAB" fill-opacity="0.2"/>
<path fill-rule="evenodd" clip-rule="evenodd" d="M215.233 65.7029H224.296V56.6405H215.233V65.7029Z" fill="#8CABAB" fill-opacity="0.2"/>
<path fill-rule="evenodd" clip-rule="evenodd" d="M203.906 43.0461H212.968V33.983H203.906V43.0461Z" fill="#8CABAB" fill-opacity="0.2"/>
<path fill-rule="evenodd" clip-rule="evenodd" d="M215.233 54.3741H224.296V45.3117H215.233V54.3741Z" fill="#8CABAB" fill-opacity="0.2"/>
<path fill-rule="evenodd" clip-rule="evenodd" d="M226.562 65.7029H235.624V56.6405H226.562V65.7029Z" fill="#8CABAB" fill-opacity="0.2"/>
<path fill-rule="evenodd" clip-rule="evenodd" d="M226.562 54.3741H235.624V45.3117H226.562V54.3741Z" fill="#8CABAB" fill-opacity="0.2"/>
<path fill-rule="evenodd" clip-rule="evenodd" d="M237.89 77.0307H246.953V67.9684H237.89V77.0307Z" fill="#8CABAB" fill-opacity="0.2"/>
<path fill-rule="evenodd" clip-rule="evenodd" d="M226.562 77.0307H235.624V67.9684H226.562V77.0307Z" fill="#8CABAB" fill-opacity="0.2"/>
<path fill-rule="evenodd" clip-rule="evenodd" d="M237.89 65.7029H246.953V56.6405H237.89V65.7029Z" fill="#8CABAB" fill-opacity="0.2"/>
<path fill-rule="evenodd" clip-rule="evenodd" d="M249.218 77.0307H258.281V67.9684H249.218V77.0307Z" fill="#8CABAB" fill-opacity="0.2"/>
<path fill-rule="evenodd" clip-rule="evenodd" d="M237.89 31.7182H246.953V22.6558H237.89V31.7182Z" fill="#8CABAB" fill-opacity="0.2"/>
<path fill-rule="evenodd" clip-rule="evenodd" d="M237.89 54.3741H246.953V45.3117H237.89V54.3741Z" fill="#8CABAB" fill-opacity="0.2"/>
<path fill-rule="evenodd" clip-rule="evenodd" d="M249.218 43.0461H258.281V33.983H249.218V43.0461Z" fill="#8CABAB" fill-opacity="0.2"/>
<path fill-rule="evenodd" clip-rule="evenodd" d="M260.546 65.7029H269.609V56.6405H260.546V65.7029Z" fill="#8CABAB" fill-opacity="0.2"/>
<path fill-rule="evenodd" clip-rule="evenodd" d="M249.218 65.7029H258.281V56.6405H249.218V65.7029Z" fill="#8CABAB" fill-opacity="0.2"/>
<path fill-rule="evenodd" clip-rule="evenodd" d="M260.546 54.3741H269.609V45.3117H260.546V54.3741Z" fill="#8CABAB" fill-opacity="0.2"/>
<path fill-rule="evenodd" clip-rule="evenodd" d="M271.874 77.0307H280.937V67.9684H271.874V77.0307Z" fill="#8CABAB" fill-opacity="0.2"/>
<path fill-rule="evenodd" clip-rule="evenodd" d="M260.546 77.0307H269.609V67.9684H260.546V77.0307Z" fill="#8CABAB" fill-opacity="0.2"/>
<path fill-rule="evenodd" clip-rule="evenodd" d="M271.874 65.7029H280.937V56.6405H271.874V65.7029Z" fill="#8CABAB" fill-opacity="0.2"/>
<path fill-rule="evenodd" clip-rule="evenodd" d="M283.203 77.0307H292.265V67.9684H283.203V77.0307Z" fill="#8CABAB" fill-opacity="0.2"/>
<path fill-rule="evenodd" clip-rule="evenodd" d="M271.874 54.3741H280.937V45.3117H271.874V54.3741Z" fill="#8CABAB" fill-opacity="0.2"/>
<path fill-rule="evenodd" clip-rule="evenodd" d="M294.531 65.7029H303.593V56.6405H294.531V65.7029Z" fill="#8CABAB" fill-opacity="0.2"/>
<path fill-rule="evenodd" clip-rule="evenodd" d="M283.203 65.7029H292.265V56.6405H283.203V65.7029Z" fill="#8CABAB" fill-opacity="0.2"/>
<path fill-rule="evenodd" clip-rule="evenodd" d="M305.859 77.0307H314.921V67.9684H305.859V77.0307Z" fill="#8CABAB" fill-opacity="0.2"/>
<path fill-rule="evenodd" clip-rule="evenodd" d="M294.531 77.0307H303.593V67.9684H294.531V77.0307Z" fill="#8CABAB" fill-opacity="0.2"/>
<path fill-rule="evenodd" clip-rule="evenodd" d="M317.187 77.0307H326.249V67.9684H317.187V77.0307Z" fill="#8CABAB" fill-opacity="0.2"/>
<path fill-rule="evenodd" clip-rule="evenodd" d="M305.859 31.7182H314.921V22.6558H305.859V31.7182Z" fill="#8CABAB" fill-opacity="0.2"/>
<path fill-rule="evenodd" clip-rule="evenodd" d="M317.187 54.3741H326.249V45.3117H317.187V54.3741Z" fill="#8CABAB" fill-opacity="0.2"/>
<path fill-rule="evenodd" clip-rule="evenodd" d="M305.859 54.3741H314.921V45.3117H305.859V54.3741Z" fill="#8CABAB" fill-opacity="0.2"/>
<path fill-rule="evenodd" clip-rule="evenodd" d="M328.515 65.7029H337.578V56.6405H328.515V65.7029Z" fill="#8CABAB" fill-opacity="0.2"/>
<path fill-rule="evenodd" clip-rule="evenodd" d="M317.187 65.7029H326.249V56.6405H317.187V65.7029Z" fill="#8CABAB" fill-opacity="0.2"/>
<path fill-rule="evenodd" clip-rule="evenodd" d="M328.515 54.3741H337.578V45.3117H328.515V54.3741Z" fill="#8CABAB" fill-opacity="0.2"/>
<path fill-rule="evenodd" clip-rule="evenodd" d="M339.844 77.0307H348.906V67.9684H339.844V77.0307Z" fill="#8CABAB" fill-opacity="0.2"/>
<path fill-rule="evenodd" clip-rule="evenodd" d="M328.515 77.0307H337.578V67.9684H328.515V77.0307Z" fill="#8CABAB" fill-opacity="0.2"/>
<path fill-rule="evenodd" clip-rule="evenodd" d="M339.844 65.7029H348.906V56.6405H339.844V65.7029Z" fill="#8CABAB" fill-opacity="0.2"/>
<path fill-rule="evenodd" clip-rule="evenodd" d="M351.171 77.0307H360.234V67.9684H351.171V77.0307Z" fill="#8CABAB" fill-opacity="0.2"/>
<path fill-rule="evenodd" clip-rule="evenodd" d="M328.515 43.0461H337.578V33.983H328.515V43.0461Z" fill="#8CABAB" fill-opacity="0.2"/>
<path fill-rule="evenodd" clip-rule="evenodd" d="M339.844 54.3741H348.906V45.3117H339.844V54.3741Z" fill="#8CABAB" fill-opacity="0.2"/>
<path fill-rule="evenodd" clip-rule="evenodd" d="M351.171 65.7029H360.234V56.6405H351.171V65.7029Z" fill="#8CABAB" fill-opacity="0.2"/>
<path fill-rule="evenodd" clip-rule="evenodd" d="M362.5 54.3741H371.562V45.3117H362.5V54.3741Z" fill="#8CABAB" fill-opacity="0.2"/>
<path fill-rule="evenodd" clip-rule="evenodd" d="M373.828 77.0307H382.89V67.9684H373.828V77.0307Z" fill="#8CABAB" fill-opacity="0.2"/>
<path fill-rule="evenodd" clip-rule="evenodd" d="M362.5 77.0307H371.562V67.9684H362.5V77.0307Z" fill="#8CABAB" fill-opacity="0.2"/>
<path fill-rule="evenodd" clip-rule="evenodd" d="M373.828 65.7029H382.89V56.6405H373.828V65.7029Z" fill="#8CABAB" fill-opacity="0.2"/>
<path fill-rule="evenodd" clip-rule="evenodd" d="M385.156 77.0307H394.218V67.9684H385.156V77.0307Z" fill="#8CABAB" fill-opacity="0.2"/>
<path fill-rule="evenodd" clip-rule="evenodd" d="M407.813 77.0307H416.875V67.9684H407.813V77.0307Z" fill="#8CABAB" fill-opacity="0.2"/>
<path fill-rule="evenodd" clip-rule="evenodd" d="M396.483 77.0307H405.546V67.9684H396.483V77.0307Z" fill="#8CABAB" fill-opacity="0.2"/>
<path fill-rule="evenodd" clip-rule="evenodd" d="M407.813 65.7029H416.875V56.6405H407.813V65.7029Z" fill="#8CABAB" fill-opacity="0.2"/>
<path fill-rule="evenodd" clip-rule="evenodd" d="M419.141 77.0307H428.203V67.9684H419.141V77.0307Z" fill="#8CABAB" fill-opacity="0.2"/>
<path fill-rule="evenodd" clip-rule="evenodd" d="M419.141 54.3741H428.203V45.3117H419.141V54.3741Z" fill="#8CABAB" fill-opacity="0.2"/>
<path fill-rule="evenodd" clip-rule="evenodd" d="M430.469 65.7029H439.531V56.6405H430.469V65.7029Z" fill="#8CABAB" fill-opacity="0.2"/>
<path fill-rule="evenodd" clip-rule="evenodd" d="M419.141 65.7029H428.203V56.6405H419.141V65.7029Z" fill="#8CABAB" fill-opacity="0.2"/>
<path fill-rule="evenodd" clip-rule="evenodd" d="M441.797 77.0307H450.859V67.9684H441.797V77.0307Z" fill="#8CABAB" fill-opacity="0.2"/>
<path fill-rule="evenodd" clip-rule="evenodd" d="M430.469 77.0307H439.531V67.9684H430.469V77.0307Z" fill="#8CABAB" fill-opacity="0.2"/>
<path fill-rule="evenodd" clip-rule="evenodd" d="M430.469 43.0461H439.531V33.983H430.469V43.0461Z" fill="#8CABAB" fill-opacity="0.2"/>
<path fill-rule="evenodd" clip-rule="evenodd" d="M453.124 77.0307H462.187V67.9684H453.124V77.0307Z" fill="#8CABAB" fill-opacity="0.2"/>
<path fill-rule="evenodd" clip-rule="evenodd" d="M453.124 65.7029H462.187V56.6405H453.124V65.7029Z" fill="#8CABAB" fill-opacity="0.2"/>
<path fill-rule="evenodd" clip-rule="evenodd" d="M475.781 77.0307H484.844V67.9684H475.781V77.0307Z" fill="#8CABAB" fill-opacity="0.2"/>
<path fill-rule="evenodd" clip-rule="evenodd" d="M464.453 77.0307H473.516V67.9684H464.453V77.0307Z" fill="#8CABAB" fill-opacity="0.2"/>
<path fill-rule="evenodd" clip-rule="evenodd" d="M475.781 65.7029H484.844V56.6405H475.781V65.7029Z" fill="#8CABAB" fill-opacity="0.2"/>
<path fill-rule="evenodd" clip-rule="evenodd" d="M487.109 77.0307H496.172V67.9684H487.109V77.0307Z" fill="#8CABAB" fill-opacity="0.2"/>
<path fill-rule="evenodd" clip-rule="evenodd" d="M464.453 43.0461H473.516V33.983H464.453V43.0461Z" fill="#8CABAB" fill-opacity="0.2"/>
<path fill-rule="evenodd" clip-rule="evenodd" d="M487.109 54.3741H496.172V45.3117H487.109V54.3741Z" fill="#8CABAB" fill-opacity="0.2"/>
<path fill-rule="evenodd" clip-rule="evenodd" d="M498.437 65.7029H507.499V56.6405H498.437V65.7029Z" fill="#8CABAB" fill-opacity="0.2"/>
<path fill-rule="evenodd" clip-rule="evenodd" d="M487.109 65.7029H496.172V56.6405H487.109V65.7029Z" fill="#8CABAB" fill-opacity="0.2"/>
<path fill-rule="evenodd" clip-rule="evenodd" d="M509.765 77.0307H518.827V67.9684H509.765V77.0307Z" fill="#8CABAB" fill-opacity="0.2"/>
<path fill-rule="evenodd" clip-rule="evenodd" d="M498.437 77.0307H507.499V67.9684H498.437V77.0307Z" fill="#8CABAB" fill-opacity="0.2"/>
<path fill-rule="evenodd" clip-rule="evenodd" d="M509.765 65.7029H518.827V56.6405H509.765V65.7029Z" fill="#8CABAB" fill-opacity="0.2"/>
<path fill-rule="evenodd" clip-rule="evenodd" d="M521.093 77.0307H530.156V67.9684H521.093V77.0307Z" fill="#8CABAB" fill-opacity="0.2"/>
<path fill-rule="evenodd" clip-rule="evenodd" d="M509.765 54.3741H518.827V45.3117H509.765V54.3741Z" fill="#8CABAB" fill-opacity="0.2"/>
<path fill-rule="evenodd" clip-rule="evenodd" d="M521.093 43.0461H530.156V33.983H521.093V43.0461Z" fill="#8CABAB" fill-opacity="0.2"/>
<path fill-rule="evenodd" clip-rule="evenodd" d="M532.422 65.7029H541.484V56.6405H532.422V65.7029Z" fill="#8CABAB" fill-opacity="0.2"/>
<path fill-rule="evenodd" clip-rule="evenodd" d="M521.093 65.7029H530.156V56.6405H521.093V65.7029Z" fill="#8CABAB" fill-opacity="0.2"/>
<path fill-rule="evenodd" clip-rule="evenodd" d="M521.093 20.3903H530.156V11.328H521.093V20.3903Z" fill="#8CABAB" fill-opacity="0.2"/>
<path fill-rule="evenodd" clip-rule="evenodd" d="M532.422 54.3741H541.484V45.3117H532.422V54.3741Z" fill="#8CABAB" fill-opacity="0.2"/>
<path fill-rule="evenodd" clip-rule="evenodd" d="M543.75 77.0307H552.812V67.9684H543.75V77.0307Z" fill="#8CABAB" fill-opacity="0.2"/>
<path fill-rule="evenodd" clip-rule="evenodd" d="M532.422 77.0307H541.484V67.9684H532.422V77.0307Z" fill="#8CABAB" fill-opacity="0.2"/>
<path fill-rule="evenodd" clip-rule="evenodd" d="M543.75 65.7029H552.812V56.6405H543.75V65.7029Z" fill="#8CABAB" fill-opacity="0.2"/>
<path fill-rule="evenodd" clip-rule="evenodd" d="M555.078 77.0307H564.14V67.9684H555.078V77.0307Z" fill="#8CABAB" fill-opacity="0.2"/>
<path fill-rule="evenodd" clip-rule="evenodd" d="M543.75 54.3741H552.812V45.3117H543.75V54.3741Z" fill="#8CABAB" fill-opacity="0.2"/>
<path fill-rule="evenodd" clip-rule="evenodd" d="M555.078 65.7029H564.14V56.6405H555.078V65.7029Z" fill="#8CABAB" fill-opacity="0.2"/>
<path fill-rule="evenodd" clip-rule="evenodd" d="M577.733 77.0307H586.796V67.9684H577.733V77.0307Z" fill="#8CABAB" fill-opacity="0.2"/>
<path fill-rule="evenodd" clip-rule="evenodd" d="M566.405 77.0307H575.468V67.9684H566.405V77.0307Z" fill="#8CABAB" fill-opacity="0.2"/>
<path fill-rule="evenodd" clip-rule="evenodd" d="M577.733 65.7029H586.796V56.6405H577.733V65.7029Z" fill="#8CABAB" fill-opacity="0.2"/>
<path fill-rule="evenodd" clip-rule="evenodd" d="M577.733 31.7182H586.796V22.6558H577.733V31.7182Z" fill="#8CABAB" fill-opacity="0.2"/>
<path fill-rule="evenodd" clip-rule="evenodd" d="M566.405 43.0461H575.468V33.983H566.405V43.0461Z" fill="#8CABAB" fill-opacity="0.2"/>
<path fill-rule="evenodd" clip-rule="evenodd" d="M589.062 77.0307H598.124V67.9684H589.062V77.0307Z" fill="#8CABAB" fill-opacity="0.2"/>
<path fill-rule="evenodd" clip-rule="evenodd" d="M600.39 65.702H609.452V56.6405H600.39V65.702Z" fill="#8CABAB" fill-opacity="0.2"/>
<path fill-rule="evenodd" clip-rule="evenodd" d="M589.062 65.7029H598.124V56.6405H589.062V65.7029Z" fill="#8CABAB" fill-opacity="0.2"/>
<path fill-rule="evenodd" clip-rule="evenodd" d="M600.39 77.0315H609.452V67.9692H600.39V77.0315Z" fill="#8CABAB" fill-opacity="0.2"/>
<path fill-rule="evenodd" clip-rule="evenodd" d="M600.39 43.0461H609.452V33.9838H600.39V43.0461Z" fill="#8CABAB" fill-opacity="0.2"/>
</svg>
