<svg width="72" height="72" viewBox="0 0 72 72" fill="none" xmlns="http://www.w3.org/2000/svg">
<path fill-rule="evenodd" clip-rule="evenodd" d="M54.6159 55.8184H60.7103V49.7319H54.6159V55.8184Z" fill="#00ACDC"/>
<path fill-rule="evenodd" clip-rule="evenodd" d="M47 55.8184H53.0939V49.7319H47V55.8184Z" fill="#002776"/>
<path fill-rule="evenodd" clip-rule="evenodd" d="M54.6159 48.2167H60.7103V42.1302H54.6159V48.2167Z" fill="#F9C822"/>
<path fill-rule="evenodd" clip-rule="evenodd" d="M20.8406 4H58.1594L66 22.2947V61H30V59H64V23.5H15V42H13V22.2947L20.8406 4ZM15.5165 21.5H38.5V6H22.1594L15.5165 21.5ZM40.5 6V21.5H63.4835L56.8406 6H40.5Z" fill="#002776"/>
<path d="M15 52.5C15 52.8283 14.9483 53.1534 14.8478 53.4567C14.7473 53.76 14.5999 54.0356 14.4142 54.2678C14.2285 54.4999 14.008 54.6841 13.7654 54.8097C13.5227 54.9353 13.2626 55 13 55C12.7374 55 12.4773 54.9353 12.2346 54.8097C11.992 54.6841 11.7715 54.4999 11.5858 54.2678C11.4001 54.0356 11.2527 53.76 11.1522 53.4567C11.0517 53.1534 11 52.8283 11 52.5C11 52.1717 11.0517 51.8466 11.1522 51.5433C11.2528 51.24 11.4001 50.9644 11.5858 50.7323C11.7715 50.5001 11.992 50.3159 12.2346 50.1903C12.4773 50.0647 12.7374 50 13 50C13.2626 50 13.5227 50.0647 13.7654 50.1903C14.008 50.3159 14.2285 50.5001 14.4142 50.7323C14.5999 50.9644 14.7472 51.24 14.8478 51.5433C14.9483 51.8466 15 52.1717 15 52.5Z" fill="#002776"/>
<path d="M23 52.5C23 53.1631 22.7893 53.7989 22.4142 54.2678C22.0391 54.7366 21.5304 55 21 55C20.4696 55 19.9609 54.7366 19.5858 54.2678C19.2107 53.7989 19 53.1631 19 52.5C19 52.1717 19.0517 51.8466 19.1522 51.5433C19.2527 51.24 19.4001 50.9644 19.5858 50.7323C19.7715 50.5001 19.992 50.3159 20.2346 50.1903C20.4773 50.0647 20.7374 50 21 50C21.2626 50 21.5227 50.0647 21.7654 50.1903C22.008 50.3159 22.2285 50.5001 22.4142 50.7323C22.5999 50.9644 22.7473 51.24 22.8478 51.5433C22.9483 51.8466 23 52.1717 23 52.5Z" fill="#002776"/>
<path d="M21 57C20.2725 59.1179 19.0841 59.9904 17 60C14.9159 60.0096 13.7444 59.111 13 57L11 57.5587C11.9435 60.234 14.3436 62.0123 17.018 61.9999C19.6924 61.9873 22.0781 60.1873 23 57.5034L21 57Z" fill="#002776"/>
<path fill-rule="evenodd" clip-rule="evenodd" d="M17 64C21.9706 64 26 59.9706 26 55C26 50.0294 21.9706 46 17 46C12.0294 46 8 50.0294 8 55C8 59.9706 12.0294 64 17 64ZM17 66C23.0751 66 28 61.0751 28 55C28 48.9249 23.0751 44 17 44C10.9249 44 6 48.9249 6 55C6 61.0751 10.9249 66 17 66Z" fill="#002776"/>
</svg>
