<svg width="72" height="72" viewBox="0 0 72 72" fill="none" xmlns="http://www.w3.org/2000/svg">
<path d="M15.0157 16V18.4633H41.3485V33.5018H59.9773L63.0564 37.437V47.9492H58.3146C58.0344 46.366 57.2056 44.932 55.9736 43.8989C54.7416 42.8659 53.1852 42.2996 51.5774 42.2996C49.9696 42.2996 48.4131 42.8659 47.1812 43.8989C45.9492 44.932 45.1204 46.366 44.8402 47.9492H32.653C32.3728 46.366 31.544 44.932 30.312 43.8989C29.0801 42.8659 27.5236 42.2996 25.9158 42.2996C24.308 42.2996 22.7516 42.8659 21.5196 43.8989C20.2876 44.932 19.4589 46.366 19.1787 47.9492H15.0157V50.4125H19.1602C19.4542 51.9827 20.288 53.4007 21.5172 54.4211C22.7464 55.4415 24.2937 56 25.8912 56C27.4887 56 29.036 55.4415 30.2652 54.4211C31.4944 53.4007 32.3281 51.9827 32.6222 50.4125H44.8279C45.122 51.9827 45.9557 53.4007 47.1849 54.4211C48.4141 55.4415 49.9614 56 51.5589 56C53.1564 56 54.7037 55.4415 55.9329 54.4211C57.1621 53.4007 57.9959 51.9827 58.2899 50.4125H65.5013V36.6179L61.6708 31.6913L55.7158 19.1469H43.8118V16.0062L15.0157 16ZM25.8789 53.5409C25.0102 53.5409 24.161 53.2832 23.4388 52.8005C22.7166 52.3177 22.1538 51.6316 21.8217 50.8289C21.4895 50.0262 21.4029 49.1431 21.5728 48.2912C21.7428 47.4392 22.1616 46.6569 22.7763 46.0431C23.3909 45.4292 24.1739 45.0115 25.026 44.8428C25.8782 44.6741 26.7612 44.7619 27.5635 45.0952C28.3657 45.4285 29.051 45.9922 29.5327 46.7151C30.0145 47.438 30.271 48.2875 30.2697 49.1562C30.2681 50.3197 29.8048 51.4349 28.9815 52.257C28.1582 53.0791 27.0423 53.5409 25.8789 53.5409ZM51.5528 53.5409C50.6841 53.5409 49.8349 53.2832 49.1127 52.8005C48.3905 52.3177 47.8277 51.6316 47.4956 50.8289C47.1634 50.0262 47.0768 49.1431 47.2467 48.2912C47.4166 47.4392 47.8355 46.6569 48.4501 46.0431C49.0648 45.4292 49.8478 45.0115 50.6999 44.8428C51.5521 44.6741 52.4351 44.7619 53.2373 45.0952C54.0396 45.4285 54.7249 45.9922 55.2066 46.7151C55.6884 47.438 55.9448 48.2875 55.9436 49.1562C55.942 50.3186 55.4795 51.4329 54.6576 52.2548C53.8356 53.0768 52.7213 53.5393 51.5589 53.5409H51.5528ZM54.1577 21.6102L58.6533 31.0447H43.8118V21.6102H54.1577Z" fill="#002776"/>
<path d="M20.1256 38.4652H10.2723V40.9285H20.1256V38.4652Z" fill="#1FB5DF"/>
<path d="M24.2432 31.0755H7V33.5388H24.2432V31.0755Z" fill="#002776"/>
<path d="M27.321 23.6854H10.0778V26.1487H27.321V23.6854Z" fill="#F9C822"/>
</svg>
