<svg width="72" height="72" viewBox="0 0 72 72" fill="none" xmlns="http://www.w3.org/2000/svg">
<path d="M13.2639 15.2828C13.1593 15.3872 13.0764 15.5112 13.0198 15.6477C12.9632 15.7842 12.9341 15.9305 12.9341 16.0783C12.9341 16.2261 12.9632 16.3724 13.0198 16.5089C13.0764 16.6454 13.1593 16.7694 13.2639 16.8738L23.1925 26.8081C23.4035 27.0191 23.6896 27.1376 23.988 27.1376C24.2864 27.1376 24.5725 27.0191 24.7835 26.8081C24.9945 26.5971 25.1131 26.3109 25.1131 26.0126C25.1131 25.7142 24.9945 25.428 24.7835 25.217L14.8493 15.2828C14.6386 15.0734 14.3536 14.9558 14.0566 14.9558C13.7595 14.9558 13.4745 15.0734 13.2639 15.2828Z" fill="#00ACDC"/>
<path d="M45.355 20.7644V6.89468C45.355 6.59647 45.2366 6.31047 45.0257 6.0996C44.8148 5.88873 44.5288 5.77026 44.2306 5.77026C43.9324 5.77026 43.6464 5.88873 43.4355 6.0996C43.2247 6.31047 43.1062 6.59647 43.1062 6.89468V20.7644C43.1062 21.0626 43.2247 21.3486 43.4355 21.5595C43.6464 21.7704 43.9324 21.8888 44.2306 21.8888C44.5288 21.8888 44.8148 21.7704 45.0257 21.5595C45.2366 21.3486 45.355 21.0626 45.355 20.7644Z" fill="#00ACDC"/>
<path d="M27.9209 0.845224C27.884 0.701993 27.8192 0.567436 27.7303 0.449235C27.6414 0.331033 27.53 0.231503 27.4026 0.156326C27.2753 0.0811495 27.1343 0.0317989 26.9879 0.0110919C26.8414 -0.009615 26.6923 -0.00127271 26.5491 0.0356425C26.4059 0.0725577 26.2713 0.137323 26.1531 0.22624C26.0349 0.315158 25.9354 0.426486 25.8602 0.553868C25.785 0.681251 25.7357 0.822194 25.7149 0.968649C25.6942 1.1151 25.7026 1.2642 25.7395 1.40743L29.1128 14.9005C29.1497 15.0437 29.2144 15.1783 29.3034 15.2965C29.3923 15.4147 29.5036 15.5142 29.631 15.5894C29.7584 15.6645 29.8993 15.7139 30.0458 15.7346C30.1922 15.7553 30.3413 15.747 30.4845 15.71C30.6278 15.6731 30.7623 15.6084 30.8805 15.5195C30.9987 15.4305 31.0983 15.3192 31.1734 15.1918C31.2486 15.0644 31.298 14.9235 31.3187 14.777C31.3394 14.6306 31.331 14.4815 31.2941 14.3383L27.9209 0.845224Z" fill="#00ACDC"/>
<path d="M13.0954 40.9196C16.6261 45.9795 16.5979 48.262 16.5755 50.4771C16.4068 66.5788 27.5667 71.5544 34.1951 71.9535C34.7011 71.9817 35.1902 71.9985 35.6793 71.9985C38.7445 72.0349 41.7826 71.4209 44.593 70.1969C47.4034 68.9729 49.9223 67.1668 51.9834 64.8978L55.6659 60.8387L55.7277 60.7656L57.5549 58.7472C58.2018 58.0997 58.6623 57.2899 58.888 56.4028C59.1136 55.5158 59.0961 54.5844 58.8372 53.7064C58.5783 52.8285 58.0876 52.0366 57.4168 51.4139C56.7459 50.7912 55.9197 50.3608 55.025 50.1679C55.2006 49.5298 55.2357 48.8611 55.1278 48.2081C55.02 47.5551 54.7718 46.9332 54.4004 46.3854C54.0289 45.8376 53.5431 45.3769 52.9763 45.035C52.4096 44.6932 51.7754 44.4783 51.1176 44.4053C51.3003 43.9004 51.3954 43.368 51.3987 42.8311C51.4018 41.6586 50.9976 40.5214 50.2552 39.6139C49.5128 38.7063 48.4782 38.0848 47.3283 37.8555L53.4283 31.7331C53.9069 31.256 54.2856 30.6885 54.5425 30.0635C54.7993 29.4385 54.9291 28.7686 54.9242 28.0929C54.9194 27.4172 54.7799 26.7492 54.5141 26.128C54.2483 25.5067 53.8614 24.9447 53.376 24.4746C52.8906 24.0045 52.3165 23.6358 51.687 23.39C51.0576 23.1442 50.3855 23.0263 49.71 23.0431C49.0345 23.0599 48.3691 23.211 47.7526 23.4878C47.1362 23.7645 46.581 24.1612 46.1196 24.6548C39.4349 31.7893 31.1254 39.9076 27.8478 41.24C25.9362 42.0271 25.4752 41.4143 23.9966 38.9912C22.9697 37.0928 21.6056 35.3972 19.9712 33.9875C18.026 32.4077 15.7378 32.3627 13.8431 33.8638C11.7011 35.5561 11.3919 38.4683 13.0954 40.9196ZM53.9399 52.3099C54.3129 52.3085 54.6825 52.3814 55.0271 52.5242C55.3717 52.6671 55.6844 52.8771 55.947 53.142C56.212 53.4105 56.4213 53.7288 56.5628 54.0786C56.7043 54.4283 56.7753 54.8025 56.7716 55.1798C56.768 55.557 56.6898 55.9298 56.5415 56.2767C56.3932 56.6237 56.1778 56.9378 55.9076 57.2012L54.1254 59.1633C53.6481 59.3887 53.1132 59.4627 52.5926 59.3752C52.072 59.2878 51.5907 59.0432 51.2132 58.6742L51.112 58.5673C50.6522 58.1164 50.3759 57.5111 50.3364 56.8684C50.297 56.2256 50.4972 55.591 50.8984 55.0873L53.7094 52.2762L53.9399 52.3099ZM52.2533 47.2838C52.6696 47.6966 52.9148 48.2514 52.9398 48.8372C52.9648 49.4229 52.7678 49.9966 52.3882 50.4434C52.3412 50.4865 52.2979 50.5335 52.2589 50.584L49.0318 53.811C48.5761 53.9777 48.0828 54.0134 47.6078 53.914C47.1328 53.8147 46.6952 53.5842 46.3445 53.2488L46.2095 53.1139C45.767 52.6543 45.5069 52.0493 45.4779 51.412C45.449 50.7746 45.6531 50.1485 46.0521 49.6507C46.5019 49.3021 48.3853 47.8123 49.386 46.9521C49.8313 46.6824 50.3537 46.5687 50.8708 46.6287C51.388 46.6888 51.8704 46.9192 52.242 47.2838H52.2533ZM48.3178 40.8128C48.5827 41.0754 48.7927 41.3881 48.9356 41.7327C49.0785 42.0772 49.1513 42.4468 49.1499 42.8198C49.0764 43.7332 48.6535 44.583 47.9692 45.1924C47.2833 45.7883 45.8047 46.9746 44.714 47.8291C44.249 47.9619 43.7568 47.9672 43.289 47.8446C42.8212 47.7219 42.3949 47.4758 42.0548 47.132L41.9817 47.0589C41.4698 46.5466 41.1823 45.852 41.1823 45.1277C41.1823 44.4035 41.4698 43.7089 41.9817 43.1965L44.6241 40.5541C45.1656 40.1433 45.8375 39.9426 46.5156 39.9891C47.1936 40.0356 47.8319 40.3262 48.3122 40.8071L48.3178 40.8128ZM15.243 35.6011C16.3225 34.7465 17.4075 34.7802 18.5544 35.7079C19.9854 36.9557 21.1779 38.4529 22.0739 40.1269C22.5955 41.1028 23.2501 42.0016 24.0191 42.7974C24.0401 42.8284 24.0626 42.8585 24.0866 42.8873C24.1821 42.9885 26.3354 45.3442 24.1428 48.768C23.9951 49.019 23.9505 49.3175 24.0184 49.6007C24.0864 49.8839 24.2615 50.1297 24.5071 50.2863C24.7526 50.443 25.0493 50.4982 25.3347 50.4405C25.6202 50.3827 25.8721 50.2165 26.0374 49.9768C26.6579 49.0873 27.0726 48.0708 27.2516 47.0012C27.4305 45.9315 27.3691 44.8355 27.0719 43.7925C27.6288 43.7163 28.1732 43.5669 28.6911 43.3483C33.1157 41.5324 43.4884 30.7661 47.75 26.2178C48.0088 25.9386 48.3217 25.7149 48.6696 25.5603C49.0175 25.4057 49.3932 25.3233 49.7739 25.3183C50.1551 25.3123 50.5337 25.3829 50.8871 25.5258C51.2405 25.6687 51.5617 25.8811 51.8316 26.1503C52.096 26.4141 52.3057 26.7273 52.4488 27.0722C52.5919 27.4171 52.6655 27.7868 52.6655 28.1602C52.6655 28.5336 52.5919 28.9033 52.4488 29.2482C52.3057 29.5931 52.096 29.9064 51.8316 30.1701L40.385 41.5942C39.92 42.0571 39.5509 42.6073 39.2991 43.2132C39.0472 43.8191 38.9176 44.4688 38.9176 45.1249C38.9176 45.7811 39.0472 46.4307 39.2991 47.0366C39.5509 47.6425 39.92 48.1927 40.385 48.6556L40.4469 48.7174C41.2212 49.4938 42.232 49.9903 43.3198 50.1286C43.1237 50.9399 43.1386 51.788 43.363 52.592C43.5874 53.396 44.0138 54.1292 44.6016 54.7218L44.6466 54.7612L44.6916 54.8062C45.6037 55.71 46.8369 56.2155 48.121 56.2117C48.0442 56.9302 48.1296 57.6568 48.3709 58.3379C48.6122 59.019 49.0033 59.6373 49.5153 60.1471L49.5997 60.2427C50.2501 60.8916 51.0705 61.3438 51.9666 61.547L50.2799 63.408L50.2349 63.4586C48.2219 65.6257 45.7472 67.3123 42.9941 68.3936C40.2409 69.4748 37.2798 69.9229 34.33 69.7047C31.4331 69.4535 28.6437 68.4876 26.2117 66.8937C26.386 66.8937 26.5659 66.8937 26.7458 66.8937H27.2237C30.0348 66.7138 32.6041 65.0103 34.8979 61.8338C35.0634 61.5912 35.1275 61.2934 35.0763 61.0042C35.0252 60.715 34.8629 60.4573 34.6242 60.2861C34.3855 60.115 34.0894 60.0441 33.799 60.0885C33.5087 60.1329 33.2473 60.2892 33.0707 60.5238C31.1985 63.1325 29.1914 64.5268 27.1 64.6673C24.1821 64.8585 21.9389 62.5253 21.9052 62.4916C21.8555 62.4396 21.8009 62.3925 21.7422 62.351C19.9824 59.5737 18.7737 55.7619 18.8299 50.494C18.8636 47.5199 18.5938 44.8326 14.945 39.6153C14.0961 38.4234 13.8656 36.703 15.243 35.6011Z" fill="#002776"/>
<path d="M32.7501 22.9175L30.2651 23.2774L32.0642 25.0314L31.6369 27.5052L33.8577 26.3358L36.0784 27.5052L35.6511 25.0314L37.4502 23.2774L34.9652 22.9175L33.8577 20.6687L32.7501 22.9175Z" fill="#F9C822"/>
<path d="M36.3653 9.39631L37.1243 11.1054L38.0238 9.45815L39.8847 9.267L38.5973 7.90645L38.9908 6.07365L37.2986 6.87761L35.6738 5.93872L35.9155 7.79963L34.5212 9.05336L36.3653 9.39631Z" fill="#F9C822"/>
<path d="M21.4048 8.64317L20.0499 7.35571L19.8475 9.21663L18.2002 10.1105L19.9093 10.8751L20.2523 12.7192L21.506 11.3249L23.3669 11.5723L22.428 9.9475L23.2376 8.26087L21.4048 8.64317Z" fill="#F9C822"/>
</svg>
