<svg width="72" height="72" viewBox="0 0 72 72" fill="none" xmlns="http://www.w3.org/2000/svg">
<path fill-rule="evenodd" clip-rule="evenodd" d="M39.0047 25.7523L39.0047 25.7505L39.0047 22.7542C39.0047 22.4509 38.8842 22.16 38.6697 21.9455C38.4552 21.731 38.1643 21.6105 37.861 21.6105C37.5576 21.6105 37.2667 21.731 37.0522 21.9455C36.8377 22.16 36.7172 22.4509 36.7172 22.7542V25.7568C36.7172 26.0602 36.8377 26.3511 37.0522 26.5656C37.2667 26.7801 37.5576 26.9006 37.861 26.9006C38.0116 26.9006 38.1607 26.8709 38.2997 26.8131C38.4388 26.7553 38.5651 26.6707 38.6713 26.564C38.7776 26.4573 38.8618 26.3307 38.919 26.1914C38.9762 26.0521 39.0053 25.9029 39.0047 25.7523ZM37.3641 35.7642C36.4557 35.8598 35.5871 36.2026 34.855 36.7599C33.9836 37.4233 33.3537 38.354 33.0618 39.4096C32.7698 40.4652 32.832 41.5873 33.2387 42.6042C33.6454 43.6211 34.3742 44.4766 35.3136 45.0397C36.2529 45.6028 37.3509 45.8424 38.4395 45.7219C39.528 45.6014 40.547 45.1274 41.3404 44.3724C42.1339 43.6175 42.6579 42.6233 42.8323 41.5421C43.0068 40.4609 42.8219 39.3523 42.3062 38.3861L42.1526 38.0985L50.6151 29.636L50.6166 29.6345C50.8288 29.4173 50.9463 29.1247 50.9433 28.821C50.9403 28.5165 50.8165 28.2257 50.5991 28.0125C50.3817 27.7993 50.0885 27.6813 49.784 27.6843C49.4795 27.6873 49.1887 27.8111 48.9756 28.0285L48.9725 28.0316L40.5074 36.4967L40.22 36.344C39.4944 35.9583 38.6846 35.7584 37.8629 35.762L37.3641 35.7642ZM35.1343 40.7952V40.794C35.1363 40.0734 35.4234 39.3829 35.9329 38.8734C36.4424 38.3639 37.1329 38.0768 37.8534 38.0748L37.8546 38.0748C38.3927 38.0748 38.9186 38.2344 39.366 38.5333C39.8133 38.8322 40.162 39.2571 40.3679 39.7541C40.5738 40.2512 40.6277 40.7982 40.5227 41.3259C40.4177 41.8536 40.1587 42.3383 39.7782 42.7188C39.3978 43.0992 38.913 43.3583 38.3853 43.4633C37.8576 43.5682 37.3107 43.5143 36.8136 43.3085C36.3165 43.1026 35.8917 42.7539 35.5927 42.3065C35.2938 41.8592 35.1343 41.3332 35.1343 40.7952ZM19.5766 59.0726C24.3395 63.7883 30.7466 66.4719 37.4489 66.5579C44.1562 66.644 50.6347 64.1219 55.5183 59.5235C60.4019 54.9251 63.3088 48.6098 63.626 41.9095C63.9431 35.2092 61.6458 28.6475 57.2184 23.6084L56.9462 23.2986L60.8308 19.414L62.7819 21.3726C62.9968 21.5874 63.2883 21.7082 63.5921 21.7082C63.896 21.7082 64.1874 21.5875 64.4023 21.3726C64.6171 21.1578 64.7378 20.8663 64.7378 20.5625C64.7378 20.2586 64.6171 19.9672 64.4023 19.7523L58.8724 14.2477C58.6548 14.0809 58.3843 13.9977 58.1101 14.0136C57.8286 14.03 57.563 14.1499 57.3644 14.3502C57.1658 14.5504 57.0482 14.817 57.0342 15.0987C57.0206 15.3735 57.1064 15.6437 57.2756 15.86L59.2099 17.7943L55.3236 21.6805L55.0136 21.4038C50.7008 17.5557 45.2143 15.2777 39.4442 14.9394L39.03 14.9151V8.35923H44.9494C45.2527 8.35923 45.5436 8.23873 45.7581 8.02424C45.9726 7.80974 46.0931 7.51883 46.0931 7.21548C46.0931 6.91214 45.9726 6.62123 45.7581 6.40673C45.5436 6.19224 45.2527 6.07174 44.9494 6.07174H30.7979C30.4945 6.07174 30.2036 6.19224 29.9891 6.40673C29.7746 6.62123 29.6541 6.91214 29.6541 7.21548C29.6541 7.51883 29.7746 7.80974 29.9891 8.02424C30.2036 8.23873 30.4945 8.35923 30.7979 8.35923H36.7172V14.9155L36.3027 14.9394C29.9867 15.3041 24.0276 17.9875 19.5683 22.4752L19.5673 22.4762C19.3524 22.6911 19.2317 22.9825 19.2317 23.2864C19.2317 23.5902 19.3524 23.8816 19.5673 24.0965C19.7822 24.3114 20.0736 24.4321 20.3775 24.4321C20.6814 24.4321 20.9728 24.3114 21.1876 24.0965C24.4864 20.7983 28.6892 18.5523 33.2644 17.6426C37.8396 16.7328 42.5819 17.2001 46.8915 18.9855C51.2011 20.7708 54.8846 23.794 57.4761 27.6726C60.0677 31.5513 61.4509 36.1114 61.4509 40.7762C61.4509 45.441 60.0677 50.001 57.4761 53.8797C54.8846 57.7584 51.2011 60.7815 46.8915 62.5669C42.5819 64.3522 37.8396 64.8195 33.2644 63.9098C28.6933 63.0009 24.4941 60.7581 21.1966 57.4648C20.9803 57.2739 20.6998 57.1717 20.4111 57.179C20.1189 57.1863 19.8407 57.3053 19.6334 57.5113C19.4261 57.7174 19.3056 57.995 19.2966 58.2872C19.2878 58.5751 19.3878 58.8555 19.5766 59.0726ZM36.7172 58.7854C36.7172 59.0888 36.8377 59.3797 37.0522 59.5942C37.2667 59.8087 37.5576 59.9292 37.861 59.9292C38.1643 59.9292 38.4552 59.8087 38.6697 59.5942C38.8842 59.3797 39.0047 59.0888 39.0047 58.7854V55.7828C39.0047 55.4795 38.8842 55.1886 38.6697 54.9741C38.4552 54.7596 38.1643 54.6391 37.861 54.6391C37.5576 54.6391 37.2667 54.7596 37.0522 54.9741C36.8377 55.1886 36.7172 55.4795 36.7172 55.7828V58.7854ZM55.8702 41.9136C56.1736 41.9136 56.4645 41.7931 56.679 41.5786C56.8935 41.3641 57.014 41.0732 57.014 40.7698C57.014 40.4665 56.8935 40.1756 56.679 39.9611C56.4645 39.7466 56.1736 39.6261 55.8702 39.6261H52.874C52.5706 39.6261 52.2797 39.7466 52.0652 39.9611C51.8507 40.1756 51.7302 40.4665 51.7302 40.7698C51.7302 41.0732 51.8507 41.3641 52.0652 41.5786C52.2797 41.7931 52.5706 41.9136 52.874 41.9136H55.8702ZM49.2879 50.6081C49.073 50.3933 48.7816 50.2725 48.4777 50.2725C48.1739 50.2725 47.8824 50.3933 47.6676 50.6081C47.4527 50.823 47.332 51.1144 47.332 51.4183C47.332 51.7222 47.4527 52.0136 47.6676 52.2285L49.7897 54.3505C50.0045 54.5654 50.296 54.6861 50.5998 54.6861C50.9037 54.6861 51.1951 54.5654 51.41 54.3505C51.6249 54.1357 51.7456 53.8443 51.7456 53.5404C51.7456 53.2365 51.6249 52.9451 51.41 52.7302L49.2879 50.6081Z" fill="#002776"/>
<path d="M8.00493 31.1411C7.70931 30.9267 7.54333 30.6365 7.54333 30.3339C7.54333 30.0314 7.70931 29.7412 8.00493 29.5268C8.30056 29.3124 8.70174 29.1914 9.12065 29.1902H23.4242C23.8442 29.1902 24.247 29.3107 24.544 29.5252C24.841 29.7397 25.0078 30.0306 25.0078 30.3339C25.0078 30.6373 24.841 30.9282 24.544 31.1427C24.247 31.3572 23.8442 31.4777 23.4242 31.4777H9.12065C8.70174 31.4765 8.30056 31.3554 8.00493 31.1411Z" fill="#F9C822"/>
<path d="M11.6373 41.1642C11.3403 40.9497 11.1735 40.6588 11.1735 40.3554C11.1735 40.0521 11.3403 39.7612 11.6373 39.5467C11.9343 39.3322 12.3371 39.2117 12.7571 39.2117H27.0543C27.4743 39.2117 27.8771 39.3322 28.1741 39.5467C28.4711 39.7612 28.6379 40.0521 28.6379 40.3554C28.6379 40.6588 28.4711 40.9497 28.1741 41.1642C27.8771 41.3787 27.4743 41.4992 27.0543 41.4992H12.7571C12.3371 41.4992 11.9343 41.3787 11.6373 41.1642Z" fill="#002776"/>
<path d="M23.4245 51.4696H9.121C8.70099 51.4696 8.29819 51.3491 8.00119 51.1346C7.7042 50.9201 7.53735 50.6292 7.53735 50.3259C7.53735 50.0225 7.7042 49.7316 8.00119 49.5171C8.29819 49.3026 8.70099 49.1821 9.121 49.1821H23.4245C23.8445 49.1821 24.2473 49.3026 24.5443 49.5171C24.8413 49.7316 25.0082 50.0225 25.0082 50.3259C25.0082 50.6292 24.8413 50.9201 24.5443 51.1346C24.2473 51.3491 23.8445 51.4696 23.4245 51.4696Z" fill="#00ACDC"/>
</svg>
