<svg width="72" height="72" viewBox="0 0 72 72" fill="none" xmlns="http://www.w3.org/2000/svg">
<path fill-rule="evenodd" clip-rule="evenodd" d="M51.9264 7.67618C52.8716 8.6214 53.4027 9.90339 53.4027 11.2401V60.7598C53.4027 62.0965 52.8716 63.3785 51.9264 64.3237C50.9812 65.2689 49.6992 65.7999 48.3625 65.7999H22.9476C21.6109 65.7999 20.3289 65.2689 19.3837 64.3237C18.4385 63.3785 17.9075 62.0965 17.9075 60.7598V11.2401C17.9075 9.90339 18.4385 8.6214 19.3837 7.67618C20.3289 6.73097 21.6109 6.19995 22.9476 6.19995H48.3625C49.6992 6.19995 50.9812 6.73097 51.9264 7.67618ZM51.1826 55.0576H20.1276V60.6943C20.1276 61.4422 20.4247 62.1595 20.9535 62.6884C21.4824 63.2172 22.1997 63.5144 22.9476 63.5144H48.3625C49.1104 63.5144 49.8277 63.2172 50.3566 62.6884C50.8855 62.1595 51.1826 61.4422 51.1826 60.6943V55.0576ZM20.1276 52.772H51.1826V11.2401C51.1826 10.4922 50.8855 9.77489 50.3566 9.24602C49.8277 8.71715 49.1104 8.42004 48.3625 8.42004H22.9476C22.1997 8.42004 21.4824 8.71715 20.9535 9.24602C20.4247 9.77489 20.1276 10.4922 20.1276 11.2401V52.772Z" fill="#002776"/>
<path d="M11.4192 34.6899H6.31004C5.58653 34.6899 5 35.2765 5 36C5 36.7235 5.58653 37.31 6.31004 37.31H11.4192C12.1427 37.31 12.7293 36.7235 12.7293 36C12.7293 35.2765 12.1427 34.6899 11.4192 34.6899Z" fill="#002776"/>
<path d="M13.2059 26.5391L8.10456 23.9845C7.45762 23.6606 6.67055 23.9224 6.34659 24.5693C6.02263 25.2163 6.28445 26.0033 6.93139 26.3273L12.0328 28.8819C12.6797 29.2058 13.4668 28.944 13.7907 28.2971C14.1147 27.6501 13.8529 26.8631 13.2059 26.5391Z" fill="#F9C822"/>
<path d="M12.1394 43.1257L7.04394 45.6773C6.397 46.0013 6.13518 46.7884 6.45914 47.4353C6.7831 48.0822 7.57017 48.3441 8.21711 48.0201L13.3126 45.4685C13.9596 45.1445 14.2214 44.3574 13.8974 43.7105C13.5735 43.0636 12.7864 42.8017 12.1394 43.1257Z" fill="#00ACDC"/>
<path d="M64.9998 34.6899H59.8906C59.1671 34.6899 58.5806 35.2765 58.5806 36C58.5806 36.7235 59.1671 37.31 59.8906 37.31H64.9998C65.7233 37.31 66.3098 36.7235 66.3098 36C66.3098 35.2765 65.7233 34.6899 64.9998 34.6899Z" fill="#002776"/>
<path d="M63.1526 23.9404L58.0571 26.492C57.4102 26.816 57.1484 27.6031 57.4723 28.25C57.7963 28.8969 58.5834 29.1588 59.2303 28.8348L64.3258 26.2832C64.9727 25.9592 65.2346 25.1721 64.9106 24.5252C64.5866 23.8782 63.7996 23.6164 63.1526 23.9404Z" fill="#00ACDC"/>
<path d="M64.3788 45.7151L59.2774 43.1606C58.6305 42.8366 57.8434 43.0984 57.5194 43.7454C57.1955 44.3923 57.4573 45.1794 58.1042 45.5033L63.2056 48.0579C63.8525 48.3819 64.6396 48.12 64.9636 47.4731C65.2875 46.8262 65.0257 46.0391 64.3788 45.7151Z" fill="#F9C822"/>
<path fill-rule="evenodd" clip-rule="evenodd" d="M38.1277 30.181C37.3957 30.6701 36.5353 30.9311 35.655 30.9311C34.4746 30.9311 33.3426 30.4622 32.5079 29.6275C31.6733 28.7929 31.2043 27.6608 31.2043 26.4804C31.2043 25.6002 31.4654 24.7397 31.9544 24.0078C32.4435 23.2759 33.1386 22.7054 33.9518 22.3686C34.7651 22.0317 35.6599 21.9436 36.5233 22.1153C37.3866 22.287 38.1797 22.7109 38.8021 23.3334C39.4245 23.9558 39.8484 24.7488 40.0201 25.6122C40.1919 26.4755 40.1037 27.3704 39.7669 28.1836C39.43 28.9969 38.8596 29.692 38.1277 30.181ZM35.855 24.1845V24.2589C36.2256 24.2922 36.5831 24.4179 36.8942 24.6258C37.2611 24.8709 37.5469 25.2193 37.7158 25.6268C37.8846 26.0344 37.9288 26.4829 37.8427 26.9156C37.7566 27.3483 37.5442 27.7457 37.2322 28.0577C36.9203 28.3696 36.5228 28.5821 36.0902 28.6681C35.6575 28.7542 35.209 28.71 34.8014 28.5412C34.3938 28.3724 34.0454 28.0865 33.8003 27.7197C33.5558 27.3538 33.4251 26.9237 33.4244 26.4837C33.4153 26.1858 33.4658 25.8892 33.5732 25.6112C33.681 25.3322 33.8438 25.0777 34.0519 24.8629C34.26 24.6481 34.5091 24.4773 34.7845 24.3608C35.06 24.2442 35.356 24.1842 35.6551 24.1844L35.855 24.1845Z" fill="#002776"/>
<path fill-rule="evenodd" clip-rule="evenodd" d="M43.6833 33.1063L35.655 43.8321L27.6274 33.1071L27.6267 33.1063C26.12 31.1162 25.3686 28.6561 25.5057 26.1638V26.1528C25.5057 23.461 26.575 20.8795 28.4783 18.9761C30.3817 17.0727 32.9632 16.0034 35.655 16.0034C38.3468 16.0034 40.9283 17.0727 42.8317 18.9761C44.7351 20.8795 45.8041 23.461 45.8041 26.1528L45.8047 26.1637C45.9417 28.6561 45.19 31.1162 43.6833 33.1063ZM41.8405 31.7759C43.0441 30.2266 43.6617 28.3018 43.5841 26.3414L43.5838 26.335C43.316 22.5857 40.3016 18.682 35.655 18.682C31.0084 18.682 27.9941 22.5857 27.7263 26.335L27.9258 26.3493L27.7259 26.3414C27.6484 28.3018 28.2659 30.2266 29.4695 31.7759L35.655 40.1129L41.8405 31.7759Z" fill="#002776"/>
</svg>
