<svg width="72" height="72" viewBox="0 0 72 72" fill="none" xmlns="http://www.w3.org/2000/svg">
<path d="M11.25 40.5C9.02496 40.5 6.84989 41.1598 4.99984 42.396C3.14979 43.6321 1.70785 45.3891 0.85636 47.4448C0.00487445 49.5005 -0.217913 51.7625 0.216171 53.9448C0.650254 56.1271 1.72171 58.1316 3.29505 59.7049C4.86839 61.2783 6.87295 62.3497 9.05524 62.7838C11.2375 63.2179 13.4995 62.9951 15.5552 62.1436C17.6109 61.2922 19.3679 59.8502 20.604 58.0002C21.8402 56.1501 22.5 53.975 22.5 51.75C22.4966 48.7673 21.3103 45.9078 19.2012 43.7988C17.0922 41.6897 14.2327 40.5034 11.25 40.5ZM11.25 60.75C9.46997 60.75 7.72991 60.2222 6.24987 59.2332C4.76983 58.2443 3.61628 56.8387 2.93509 55.1941C2.2539 53.5496 2.07567 51.74 2.42294 49.9942C2.7702 48.2484 3.62737 46.6447 4.88604 45.386C6.14472 44.1274 7.74836 43.2702 9.49419 42.9229C11.24 42.5757 13.0496 42.7539 14.6942 43.4351C16.3387 44.1163 17.7443 45.2698 18.7332 46.7499C19.7222 48.2299 20.25 49.97 20.25 51.75C20.2473 54.1361 19.2982 56.4237 17.611 58.1109C15.9237 59.7982 13.6361 60.7473 11.25 60.75Z" fill="#002776"/>
<path d="M14.5488 54.199C13.5549 54.8042 12.4137 55.1243 11.2501 55.1243C10.0865 55.1243 8.94533 54.8042 7.95148 54.199C7.70585 54.0295 7.40297 53.9646 7.10947 54.0185C6.81598 54.0724 6.5559 54.2407 6.38647 54.4863C6.21704 54.7319 6.15212 55.0348 6.206 55.3283C6.25988 55.6218 6.42814 55.8819 6.67377 56.0513C8.03248 56.9408 9.62634 57.4032 11.2501 57.379C12.8739 57.4032 14.4678 56.9408 15.8265 56.0513C15.9481 55.9674 16.052 55.8604 16.1323 55.7363C16.2125 55.6122 16.2676 55.4736 16.2943 55.3283C16.3209 55.183 16.3187 55.0338 16.2878 54.8893C16.2568 54.7448 16.1977 54.6079 16.1138 54.4863C16.0299 54.3646 15.9229 54.2607 15.7988 54.1805C15.6748 54.1002 15.5361 54.0452 15.3908 54.0185C15.2455 53.9918 15.0963 53.994 14.9518 54.025C14.8074 54.056 14.6704 54.1151 14.5488 54.199V54.199Z" fill="#002776"/>
<path d="M8.4375 50.4844C9.05882 50.4844 9.5625 49.9807 9.5625 49.3594C9.5625 48.7381 9.05882 48.2344 8.4375 48.2344C7.81618 48.2344 7.3125 48.7381 7.3125 49.3594C7.3125 49.9807 7.81618 50.4844 8.4375 50.4844Z" fill="#002776"/>
<path d="M13.5 50.4844C14.1213 50.4844 14.625 49.9807 14.625 49.3594C14.625 48.7381 14.1213 48.2344 13.5 48.2344C12.8787 48.2344 12.375 48.7381 12.375 49.3594C12.375 49.9807 12.8787 50.4844 13.5 50.4844Z" fill="#002776"/>
<path d="M36 40.5C33.775 40.5 31.5999 41.1598 29.7498 42.396C27.8998 43.6321 26.4578 45.3891 25.6064 47.4448C24.7549 49.5005 24.5321 51.7625 24.9662 53.9448C25.4003 56.1271 26.4717 58.1316 28.0451 59.7049C29.6184 61.2783 31.623 62.3497 33.8052 62.7838C35.9875 63.2179 38.2495 62.9951 40.3052 62.1436C42.3609 61.2922 44.1179 59.8502 45.354 58.0002C46.5902 56.1501 47.25 53.975 47.25 51.75C47.2466 48.7673 46.0603 45.9078 43.9512 43.7988C41.8422 41.6897 38.9827 40.5034 36 40.5ZM36 60.75C34.22 60.75 32.4799 60.2222 30.9999 59.2332C29.5198 58.2443 28.3663 56.8387 27.6851 55.1941C27.0039 53.5496 26.8257 51.74 27.1729 49.9942C27.5202 48.2484 28.3774 46.6447 29.636 45.386C30.8947 44.1274 32.4984 43.2702 34.2442 42.9229C35.99 42.5757 37.7996 42.7539 39.4442 43.4351C41.0887 44.1163 42.4943 45.2698 43.4832 46.7499C44.4722 48.2299 45 49.97 45 51.75C44.9973 54.1361 44.0482 56.4237 42.361 58.1109C40.6737 59.7982 38.3861 60.7473 36 60.75Z" fill="#002776"/>
<path d="M60.75 40.5C58.525 40.5 56.3499 41.1598 54.4998 42.396C52.6498 43.6321 51.2078 45.3891 50.3564 47.4448C49.5049 49.5005 49.2821 51.7625 49.7162 53.9448C50.1503 56.1271 51.2217 58.1316 52.7951 59.7049C54.3684 61.2783 56.373 62.3497 58.5552 62.7838C60.7375 63.2179 62.9995 62.9951 65.0552 62.1436C67.1109 61.2922 68.8679 59.8502 70.104 58.0002C71.3402 56.1501 72 53.975 72 51.75C71.9966 48.7673 70.8103 45.9078 68.7012 43.7988C66.5922 41.6897 63.7327 40.5034 60.75 40.5ZM60.75 60.75C58.97 60.75 57.2299 60.2222 55.7499 59.2332C54.2698 58.2443 53.1163 56.8387 52.4351 55.1941C51.7539 53.5496 51.5757 51.74 51.9229 49.9942C52.2702 48.2484 53.1274 46.6447 54.386 45.386C55.6447 44.1274 57.2484 43.2702 58.9942 42.9229C60.74 42.5757 62.5496 42.7539 64.1942 43.4351C65.8387 44.1163 67.2443 45.2698 68.2332 46.7499C69.2222 48.2299 69.75 49.97 69.75 51.75C69.7473 54.1361 68.7982 56.4237 67.111 58.1109C65.4237 59.7982 63.1361 60.7473 60.75 60.75Z" fill="#002776"/>
<path d="M33.4687 50.4844C34.0901 50.4844 34.5937 49.9807 34.5937 49.3594C34.5937 48.7381 34.0901 48.2344 33.4687 48.2344C32.8474 48.2344 32.3438 48.7381 32.3438 49.3594C32.3438 49.9807 32.8474 50.4844 33.4687 50.4844Z" fill="#002776"/>
<path d="M38.5312 50.4844C39.1526 50.4844 39.6562 49.9807 39.6562 49.3594C39.6562 48.7381 39.1526 48.2344 38.5312 48.2344C37.9099 48.2344 37.4062 48.7381 37.4062 49.3594C37.4062 49.9807 37.9099 50.4844 38.5312 50.4844Z" fill="#002776"/>
<path d="M58.2187 50.7656C58.8401 50.7656 59.3437 50.2619 59.3437 49.6406C59.3437 49.0193 58.8401 48.5156 58.2187 48.5156C57.5974 48.5156 57.0938 49.0193 57.0938 49.6406C57.0938 50.2619 57.5974 50.7656 58.2187 50.7656Z" fill="#002776"/>
<path d="M63.2812 50.4844C63.9026 50.4844 64.4062 49.9807 64.4062 49.3594C64.4062 48.7381 63.9026 48.2344 63.2812 48.2344C62.6599 48.2344 62.1562 48.7381 62.1562 49.3594C62.1562 49.9807 62.6599 50.4844 63.2812 50.4844Z" fill="#002776"/>
<path d="M39.6562 54.5625H32.3437C32.0454 54.5625 31.7592 54.681 31.5483 54.892C31.3373 55.103 31.2188 55.3891 31.2188 55.6875C31.2188 55.9859 31.3373 56.272 31.5483 56.483C31.7592 56.694 32.0454 56.8125 32.3437 56.8125H39.6562C39.9546 56.8125 40.2408 56.694 40.4517 56.483C40.6627 56.272 40.7812 55.9859 40.7812 55.6875C40.7812 55.3891 40.6627 55.103 40.4517 54.892C40.2408 54.681 39.9546 54.5625 39.6562 54.5625Z" fill="#002776"/>
<path d="M65.3265 54.761C63.9576 53.8939 62.3705 53.4336 60.7501 53.4336C59.1297 53.4336 57.5427 53.8939 56.1738 54.761C55.9281 54.9305 55.7599 55.1905 55.706 55.484C55.6521 55.7775 55.717 56.0804 55.8865 56.326C56.0559 56.5717 56.316 56.7399 56.6095 56.7938C56.903 56.8477 57.2058 56.7828 57.4515 56.6133C58.4453 56.0081 59.5865 55.688 60.7501 55.688C61.9137 55.688 63.0549 56.0081 64.0488 56.6133C64.2954 56.7795 64.5973 56.8425 64.8899 56.7888C65.1824 56.7351 65.4422 56.569 65.6138 56.326C65.7832 56.0804 65.848 55.7775 65.7942 55.484C65.7403 55.1906 65.5721 54.9305 65.3265 54.761Z" fill="#002776"/>
<path d="M19.125 31.5H32.4561L38.0366 36.8146C38.1976 36.9619 38.3977 37.0597 38.6129 37.0962C38.8281 37.1327 39.0492 37.1064 39.2498 37.0204C39.4504 36.9344 39.622 36.7925 39.7439 36.6115C39.8659 36.4305 39.9331 36.2182 39.9375 36V31.5H52.875C53.7698 31.499 54.6277 31.1431 55.2604 30.5104C55.8931 29.8777 56.249 29.0198 56.25 28.125V12.375C56.249 11.4802 55.8931 10.6223 55.2604 9.98959C54.6277 9.35687 53.7698 9.00098 52.875 9H19.125C18.2302 9.00098 17.3723 9.35687 16.7396 9.98959C16.1069 10.6223 15.751 11.4802 15.75 12.375V28.125C15.751 29.0198 16.1069 29.8777 16.7396 30.5104C17.3723 31.1431 18.2302 31.499 19.125 31.5ZM18 12.375C18.0003 12.0767 18.119 11.7908 18.3299 11.5799C18.5408 11.369 18.8267 11.2503 19.125 11.25H52.875C53.1733 11.2503 53.4592 11.369 53.6701 11.5799C53.881 11.7908 53.9997 12.0767 54 12.375V28.125C53.9997 28.4233 53.881 28.7092 53.6701 28.9201C53.4592 29.131 53.1733 29.2497 52.875 29.25H38.8125C38.5141 29.25 38.228 29.3685 38.017 29.5795C37.806 29.7905 37.6875 30.0766 37.6875 30.375V33.3748L33.6819 29.5604C33.4727 29.3611 33.1949 29.2499 32.906 29.25H19.125C18.8267 29.2497 18.5408 29.131 18.3299 28.9201C18.119 28.7092 18.0003 28.4233 18 28.125V12.375Z" fill="#002776"/>
<path d="M24.75 25.875H47.25C47.5484 25.875 47.8345 25.7565 48.0455 25.5455C48.2565 25.3345 48.375 25.0484 48.375 24.75C48.375 24.4516 48.2565 24.1655 48.0455 23.9545C47.8345 23.7435 47.5484 23.625 47.25 23.625H24.75C24.4516 23.625 24.1655 23.7435 23.9545 23.9545C23.7435 24.1655 23.625 24.4516 23.625 24.75C23.625 25.0484 23.7435 25.3345 23.9545 25.5455C24.1655 25.7565 24.4516 25.875 24.75 25.875Z" fill="#00ACDC"/>
<path d="M24.75 21.375H47.25C47.5484 21.375 47.8345 21.2565 48.0455 21.0455C48.2565 20.8345 48.375 20.5484 48.375 20.25C48.375 19.9516 48.2565 19.6655 48.0455 19.4545C47.8345 19.2435 47.5484 19.125 47.25 19.125H24.75C24.4516 19.125 24.1655 19.2435 23.9545 19.4545C23.7435 19.6655 23.625 19.9516 23.625 20.25C23.625 20.5484 23.7435 20.8345 23.9545 21.0455C24.1655 21.2565 24.4516 21.375 24.75 21.375Z" fill="#1B3066"/>
<path d="M24.75 16.875H47.25C47.5484 16.875 47.8345 16.7565 48.0455 16.5455C48.2565 16.3345 48.375 16.0484 48.375 15.75C48.375 15.4516 48.2565 15.1655 48.0455 14.9545C47.8345 14.7435 47.5484 14.625 47.25 14.625H24.75C24.4516 14.625 24.1655 14.7435 23.9545 14.9545C23.7435 15.1655 23.625 15.4516 23.625 15.75C23.625 16.0484 23.7435 16.3345 23.9545 16.5455C24.1655 16.7565 24.4516 16.875 24.75 16.875Z" fill="#F9C822"/>
</svg>
