<svg viewBox="0 0 50 28" fill="none" xmlns="http://www.w3.org/2000/svg"><rect x="1" y=".5" width="48" height="27" rx="1.5" fill="#fff"/><path d="M16.643 23.947v-1.328a.778.778 0 0 0-.23-.609.808.808 0 0 0-.617-.232.843.843 0 0 0-.758.376.792.792 0 0 0-.713-.376.72.72 0 0 0-.63.313v-.261h-.47v2.117h.473v-1.174a.488.488 0 0 1 .13-.403.509.509 0 0 1 .398-.16c.311 0 .469.2.469.56v1.177h.474v-1.174a.49.49 0 0 1 .13-.401.51.51 0 0 1 .398-.161c.32 0 .472.2.472.558v1.178h.474Zm7.008-2.116h-.767v-.643h-.473v.643h-.438v.42h.438v.965c0 .491.193.784.748.784.207 0 .41-.057.587-.164l-.136-.394a.877.877 0 0 1-.415.12c-.235 0-.31-.142-.31-.355v-.956h.765v-.42Zm4-.053a.64.64 0 0 0-.569.31v-.257h-.464v2.116h.468V22.76c0-.351.154-.546.461-.546.1 0 .2.018.292.054l.145-.435a1.018 1.018 0 0 0-.334-.056Zm-6.048.22a1.637 1.637 0 0 0-.879-.22c-.545 0-.897.256-.897.676 0 .346.262.559.744.625l.22.031c.258.035.38.102.38.22 0 .165-.172.258-.492.258-.257.008-.51-.07-.717-.221l-.221.358c.274.188.6.284.933.275.622 0 .984-.287.984-.69 0-.373-.285-.568-.753-.634l-.222-.031c-.202-.026-.365-.066-.365-.208 0-.155.153-.248.41-.248.237.004.468.066.672.182l.203-.372Zm12.563-.22a.64.64 0 0 0-.569.31v-.257h-.464v2.116h.47V22.76c0-.351.153-.546.46-.546.1 0 .2.017.293.054l.144-.435a1.018 1.018 0 0 0-.334-.056Zm-6.042 1.11c-.013.302.105.594.324.806.219.212.52.322.826.306.28.014.557-.076.775-.253l-.226-.372a.959.959 0 0 1-.563.192.689.689 0 0 1-.46-.212.68.68 0 0 1-.19-.467c0-.358.285-.655.65-.677.204.003.402.07.563.191l.226-.372a1.143 1.143 0 0 0-.775-.252 1.1 1.1 0 0 0-.826.304 1.058 1.058 0 0 0-.324.806Zm4.392 0v-1.057h-.47v.256a.821.821 0 0 0-.68-.31 1.12 1.12 0 0 0-1.078 1.111c0 .593.474 1.083 1.078 1.112a.826.826 0 0 0 .68-.31v.257h.47v-1.059Zm-1.745 0a.644.644 0 0 1 .675-.603.642.642 0 0 1 .629.651.642.642 0 0 1-.65.63.655.655 0 0 1-.479-.199.629.629 0 0 1-.175-.478Zm-5.66-1.11a1.125 1.125 0 0 0-1.073 1.125A1.123 1.123 0 0 0 25.143 24c.322.01.636-.095.884-.297l-.23-.34c-.179.14-.399.217-.626.22a.6.6 0 0 1-.646-.517h1.6a1.93 1.93 0 0 0 .01-.178c-.004-.659-.419-1.11-1.023-1.11Zm-.008.411a.534.534 0 0 1 .545.513H24.53a.546.546 0 0 1 .572-.513h.001Zm11.764.7V20.98h-.469v1.108a.82.82 0 0 0-.68-.31 1.12 1.12 0 0 0-1.078 1.111A1.12 1.12 0 0 0 35.717 24a.827.827 0 0 0 .681-.31v.257h.469v-1.059Zm-1.745 0a.644.644 0 0 1 .214-.44.653.653 0 0 1 .462-.164.641.641 0 0 1 .629.651.651.651 0 0 1-.65.63.655.655 0 0 1-.48-.199.627.627 0 0 1-.174-.478h-.001Zm-15.836 0V21.83h-.47v.256a.82.82 0 0 0-.68-.31 1.12 1.12 0 0 0-1.078 1.111c0 .593.474 1.083 1.077 1.112a.826.826 0 0 0 .681-.31v.257h.47v-1.059Zm-1.745 0a.643.643 0 0 1 .214-.44.653.653 0 0 1 .462-.164.65.65 0 0 1 .448.198.64.64 0 0 1 .18.453.642.642 0 0 1-.65.63.655.655 0 0 1-.478-.199.628.628 0 0 1-.176-.478Z" fill="#3C4858"/><path d="M21.448 5.703h7.103v12.53h-7.103V5.704Z" fill="#FF5F00"/><path d="M21.9 11.969c0-1.21.28-2.404.818-3.49A7.934 7.934 0 0 1 25 5.704c-3.328-2.568-8.108-2.194-10.98.859a7.872 7.872 0 0 0-2.154 5.406c0 2.009.77 3.942 2.154 5.407 2.872 3.053 7.652 3.426 10.98.859a7.932 7.932 0 0 1-2.282-2.776 7.876 7.876 0 0 1-.818-3.49Z" fill="#EB001B"/><path d="M38.134 11.968c0 3.053-1.774 5.835-4.57 7.168a8.245 8.245 0 0 1-8.563-.902 7.948 7.948 0 0 0 2.28-2.776 7.891 7.891 0 0 0 .82-3.49 7.892 7.892 0 0 0-.82-3.489 7.948 7.948 0 0 0-2.28-2.776 8.245 8.245 0 0 1 8.562-.902c2.797 1.333 4.571 4.117 4.571 7.167Z" fill="#F79E1B"/><rect x="1" y=".5" width="48" height="27" rx="1.5" stroke="#3C4858"/></svg>