<svg viewBox="0 0 50 28" fill="none" xmlns="http://www.w3.org/2000/svg"><rect x="1" y=".5" width="48" height="27" rx="1.5" fill="#fff"/><path d="m21.029 9.177-4.32 9.672h-2.82l-2.125-7.718c-.13-.476-.241-.65-.634-.85-.641-.326-1.7-.633-2.63-.823l.063-.28h4.538c.578 0 1.098.36 1.23.985l1.122 5.596 2.775-6.583h2.8Zm11.044 6.514c.011-2.553-3.762-2.693-3.736-3.834.008-.347.361-.716 1.131-.81.382-.047 1.435-.083 2.63.433l.468-2.051A7.582 7.582 0 0 0 30.072 9c-2.636 0-4.49 1.315-4.506 3.197-.017 1.393 1.323 2.17 2.334 2.632 1.04.474 1.388.778 1.384 1.202-.007.65-.829.936-1.597.947-1.34.02-2.118-.34-2.738-.61l-.483 2.118c.623.268 1.773.502 2.965.514 2.802 0 4.634-1.298 4.642-3.31Zm6.96 3.158H41.5l-2.154-9.672H37.07a1.271 1.271 0 0 0-.683.19c-.203.127-.36.308-.451.52l-4.002 8.962h2.8l.556-1.445h3.421l.323 1.445Zm-2.974-3.427 1.403-3.632.808 3.632h-2.212Zm-11.22-6.245-2.205 9.672h-2.667l2.206-9.672h2.666Z" fill="#1434CB"/><rect x="1" y=".5" width="48" height="27" rx="1.5" stroke="#3C4858"/></svg>