<?xml version="1.0" encoding="UTF-8" standalone="no"?><!DOCTYPE svg PUBLIC "-//W3C//DTD SVG 1.1//EN" "http://www.w3.org/Graphics/SVG/1.1/DTD/svg11.dtd"><svg width="135px" height="40px" version="1.1" xmlns="http://www.w3.org/2000/svg" xmlns:xlink="http://www.w3.org/1999/xlink" xml:space="preserve" xmlns:serif="http://www.serif.com/" style="fill-rule:evenodd;clip-rule:evenodd;stroke-linejoin:round;stroke-miterlimit:2;"><g><g><path d="M125.456,0L9.535,0C9.168,0 8.806,0 8.44,0.002C8.134,0.004 7.83,0.01 7.521,0.015C6.85,0.023 6.18,0.082 5.517,0.191C4.856,0.304 4.215,0.515 3.616,0.818C3.019,1.124 2.472,1.522 1.998,1.997C1.52,2.471 1.122,3.018 0.819,3.618C0.515,4.217 0.305,4.859 0.194,5.521C0.083,6.183 0.023,6.853 0.015,7.523C0.006,7.83 0.005,8.138 0,8.444L0,31.559C0.005,31.869 0.006,32.17 0.015,32.481C0.023,33.151 0.083,33.821 0.194,34.482C0.304,35.145 0.515,35.788 0.819,36.387C1.122,36.985 1.52,37.53 1.998,38.001C2.471,38.478 3.017,38.876 3.616,39.18C4.215,39.484 4.855,39.697 5.517,39.81C6.18,39.919 6.85,39.978 7.521,39.987C7.83,39.994 8.134,39.998 8.44,39.998C8.806,40 9.168,40 9.535,40L125.456,40C125.815,40 126.181,40 126.54,39.998C126.845,39.998 127.157,39.994 127.462,39.987C128.132,39.979 128.801,39.92 129.462,39.81C130.126,39.696 130.769,39.483 131.37,39.18C131.969,38.876 132.515,38.478 132.987,38.001C133.464,37.528 133.862,36.983 134.169,36.387C134.471,35.787 134.68,35.145 134.788,34.482C134.9,33.821 134.962,33.151 134.974,32.481C134.978,32.17 134.978,31.869 134.978,31.559C134.985,31.195 134.985,30.834 134.985,30.465L134.985,9.536C134.985,9.17 134.985,8.807 134.978,8.444C134.978,8.138 134.978,7.83 134.974,7.523C134.962,6.852 134.9,6.183 134.788,5.521C134.679,4.859 134.471,4.217 134.169,3.618C133.552,2.415 132.573,1.436 131.37,0.818C130.769,0.516 130.126,0.304 129.462,0.191C128.801,0.081 128.132,0.022 127.462,0.015C127.157,0.01 126.845,0.004 126.54,0.002C126.181,-0 125.815,-0 125.456,-0L125.456,0Z" style="fill:#a6a6a6;fill-rule:nonzero;"/><path d="M8.445,39.125C8.14,39.125 7.843,39.121 7.541,39.114C6.914,39.106 6.29,39.052 5.671,38.951C5.095,38.852 4.537,38.667 4.015,38.403C3.498,38.142 3.026,37.798 2.618,37.387C2.204,36.98 1.859,36.508 1.597,35.99C1.333,35.469 1.149,34.91 1.054,34.333C0.951,33.713 0.896,33.086 0.888,32.458C0.881,32.247 0.873,31.545 0.873,31.545L0.873,8.444C0.873,8.444 0.882,7.753 0.888,7.55C0.895,6.922 0.951,6.297 1.053,5.678C1.149,5.099 1.332,4.539 1.597,4.016C1.857,3.498 2.2,3.026 2.612,2.618C3.023,2.206 3.496,1.861 4.014,1.595C4.535,1.332 5.092,1.149 5.667,1.051C6.288,0.95 6.915,0.895 7.543,0.887L8.445,0.875L126.535,0.875L127.448,0.888C128.071,0.895 128.692,0.949 129.307,1.05C129.888,1.149 130.451,1.334 130.978,1.598C132.015,2.133 132.86,2.979 133.393,4.018C133.653,4.538 133.834,5.094 133.928,5.667C134.032,6.291 134.09,6.922 134.102,7.554C134.104,7.837 134.104,8.142 134.104,8.444C134.112,8.819 134.112,9.176 134.112,9.536L134.112,30.465C134.112,30.828 134.112,31.183 134.104,31.54C134.104,31.865 134.104,32.163 134.101,32.47C134.089,33.091 134.032,33.71 133.93,34.323C133.836,34.904 133.654,35.468 133.39,35.993C133.126,36.506 132.783,36.973 132.374,37.379C131.966,37.793 131.493,38.138 130.975,38.401C130.449,38.667 129.887,38.853 129.307,38.951C128.689,39.052 128.064,39.107 127.437,39.114C127.145,39.121 126.838,39.125 126.54,39.125L125.456,39.127L8.445,39.125Z" style="fill-rule:nonzero;"/></g><g><path d="M106.936,30.001L108.802,30.001L108.802,17.499L106.936,17.499L106.936,30.001ZM123.743,22.002L121.604,27.422L121.54,27.422L119.32,22.002L117.31,22.002L120.639,29.578L118.741,33.791L120.688,33.791L125.818,22.002L123.743,22.002ZM113.161,28.58C112.549,28.58 111.697,28.275 111.697,27.519C111.697,26.554 112.759,26.184 113.675,26.184C114.496,26.184 114.881,26.361 115.38,26.602C115.235,27.76 114.238,28.58 113.161,28.58ZM113.386,21.729C112.035,21.729 110.636,22.324 110.057,23.643L111.713,24.335C112.067,23.643 112.726,23.418 113.418,23.418C114.383,23.418 115.364,23.997 115.38,25.026L115.38,25.155C115.042,24.962 114.319,24.672 113.434,24.672C111.649,24.672 109.831,25.653 109.831,27.487C109.831,29.159 111.295,30.237 112.935,30.237C114.19,30.237 114.881,29.674 115.316,29.015L115.38,29.015L115.38,29.98L117.181,29.98L117.181,25.187C117.181,22.967 115.525,21.729 113.386,21.729ZM101.854,23.524L99.2,23.524L99.2,19.239L101.854,19.239C103.249,19.239 104.041,20.394 104.041,21.382C104.041,22.351 103.249,23.524 101.854,23.524ZM101.806,17.499L97.335,17.499L97.335,30.001L99.2,30.001L99.2,25.264L101.806,25.264C103.874,25.264 105.907,23.767 105.907,21.382C105.907,18.996 103.874,17.499 101.806,17.499ZM77.424,28.583C76.136,28.583 75.056,27.503 75.056,26.021C75.056,24.523 76.136,23.428 77.424,23.428C78.697,23.428 79.696,24.523 79.696,26.021C79.696,27.503 78.697,28.583 77.424,28.583ZM79.567,22.703L79.503,22.703C79.084,22.203 78.278,21.752 77.263,21.752C75.137,21.752 73.187,23.621 73.187,26.021C73.187,28.406 75.137,30.258 77.263,30.258C78.278,30.258 79.084,29.807 79.503,29.292L79.567,29.292L79.567,29.904C79.567,31.531 78.697,32.401 77.295,32.401C76.152,32.401 75.443,31.579 75.153,30.887L73.526,31.563C73.993,32.691 75.233,34.077 77.295,34.077C79.487,34.077 81.339,32.788 81.339,29.646L81.339,22.01L79.567,22.01L79.567,22.703ZM82.628,30.001L84.497,30.001L84.497,17.499L82.628,17.499L82.628,30.001ZM87.252,25.876C87.203,24.233 88.525,23.395 89.475,23.395C90.217,23.395 90.845,23.766 91.054,24.298L87.252,25.876ZM93.052,24.459C92.698,23.508 91.618,21.752 89.411,21.752C87.22,21.752 85.399,23.476 85.399,26.005C85.399,28.39 87.203,30.258 89.62,30.258C91.57,30.258 92.698,29.066 93.165,28.373L91.715,27.407C91.232,28.116 90.571,28.583 89.62,28.583C88.669,28.583 87.993,28.148 87.558,27.294L93.245,24.942L93.052,24.459ZM47.743,23.057L47.743,24.861L52.061,24.861C51.932,25.876 51.594,26.617 51.078,27.133C50.45,27.761 49.467,28.454 47.743,28.454C45.085,28.454 43.007,26.311 43.007,23.653C43.007,20.995 45.085,18.852 47.743,18.852C49.177,18.852 50.224,19.416 50.998,20.141L52.27,18.868C51.191,17.837 49.757,17.048 47.743,17.048C44.102,17.048 41.041,20.012 41.041,23.653C41.041,27.294 44.102,30.258 47.743,30.258C49.709,30.258 51.191,29.614 52.351,28.406C53.543,27.213 53.914,25.538 53.914,24.185C53.914,23.766 53.881,23.379 53.817,23.057L47.743,23.057ZM58.822,28.583C57.533,28.583 56.422,27.52 56.422,26.005C56.422,24.475 57.533,23.428 58.822,23.428C60.111,23.428 61.222,24.475 61.222,26.005C61.222,27.52 60.111,28.583 58.822,28.583ZM58.822,21.752C56.47,21.752 54.553,23.54 54.553,26.005C54.553,28.454 56.47,30.258 58.822,30.258C61.174,30.258 63.091,28.454 63.091,26.005C63.091,23.54 61.174,21.752 58.822,21.752ZM68.135,28.583C66.847,28.583 65.735,27.52 65.735,26.005C65.735,24.475 66.847,23.428 68.135,23.428C69.424,23.428 70.536,24.475 70.536,26.005C70.536,27.52 69.424,28.583 68.135,28.583ZM68.135,21.752C65.783,21.752 63.866,23.54 63.866,26.005C63.866,28.454 65.783,30.258 68.135,30.258C70.488,30.258 72.405,28.454 72.405,26.005C72.405,23.54 70.488,21.752 68.135,21.752Z" style="fill:#fff;fill-rule:nonzero;"/><path d="M10.509,32.39L10.435,32.319C10.144,32.011 9.972,31.533 9.972,30.914L9.972,31.059L9.972,8.938L9.972,9.09C9.972,8.42 10.173,7.914 10.508,7.612L22.898,20.001L10.509,32.39ZM9.972,8.937C9.972,8.882 9.974,8.828 9.976,8.776C9.974,8.828 9.972,8.882 9.972,8.937ZM9.977,8.773L9.977,8.771L9.977,8.773ZM9.977,8.766L9.977,8.765L9.977,8.766Z" style="fill:url(#_Linear1);"/><path d="M27.027,24.279L27.121,24.225L32.014,21.445C32.481,21.18 32.792,20.859 32.947,20.518C32.792,20.859 32.481,21.18 32.014,21.446L27.121,24.226L27.027,24.279ZM27.028,24.132L22.898,20.001L27.028,15.871L32.014,18.704C32.648,19.063 33.003,19.527 33.062,20.001L33.062,20.003C33.003,20.475 32.648,20.939 32.014,21.299L27.028,24.132Z" style="fill:url(#_Linear2);"/><path d="M11.392,32.862C11.046,32.862 10.745,32.749 10.509,32.537L10.509,32.536C10.745,32.749 11.047,32.862 11.393,32.862C11.423,32.862 11.454,32.861 11.485,32.859C11.454,32.861 11.423,32.862 11.392,32.862ZM11.393,32.715C11.047,32.716 10.745,32.603 10.509,32.39L22.898,20.001L27.028,24.132L12.513,32.38C12.112,32.608 11.731,32.715 11.393,32.715ZM10.506,32.534C10.484,32.514 10.462,32.493 10.441,32.471L10.506,32.534Z" style="fill:url(#_Linear3);"/><path d="M22.898,20.001L10.508,7.612C10.744,7.4 11.045,7.287 11.391,7.287C11.73,7.287 12.111,7.395 12.513,7.624L27.028,15.871L22.898,20.001ZM27.121,15.778L12.513,7.478C12.111,7.249 11.73,7.141 11.391,7.141L11.387,7.141L11.392,7.141C11.731,7.141 12.111,7.249 12.513,7.477L27.121,15.777L27.121,15.778Z" style="fill:url(#_Linear4);"/><path d="M11.485,32.859C11.799,32.841 12.147,32.733 12.513,32.526L27.027,24.279L12.513,32.526C12.147,32.734 11.799,32.842 11.485,32.859ZM10.509,32.537L10.506,32.534L10.509,32.537ZM10.441,32.471L10.435,32.465L10.441,32.471Z" style="fill-rule:nonzero;"/><path d="M27.027,24.279L27.121,24.225L27.027,24.279Z" style="fill:url(#_Linear5);"/><path d="M11.393,32.862C11.047,32.862 10.745,32.749 10.509,32.536L10.509,32.537C10.508,32.536 10.507,32.535 10.506,32.534L10.441,32.471C10.439,32.469 10.437,32.467 10.435,32.465L10.509,32.39C10.745,32.603 11.047,32.716 11.393,32.715C11.731,32.715 12.112,32.608 12.513,32.38L27.028,24.132L27.121,24.225L27.027,24.279L12.513,32.526C12.147,32.733 11.799,32.841 11.485,32.859C11.454,32.861 11.423,32.862 11.393,32.862Z" style="fill:url(#_Linear6);"/><path d="M10.435,32.465C10.144,32.157 9.972,31.679 9.972,31.06L9.972,31.059C9.972,31.679 10.144,32.157 10.435,32.464L10.435,32.465Z" style="fill-rule:nonzero;"/><path d="M10.435,32.464C10.144,32.157 9.972,31.679 9.972,31.059L9.972,30.914C9.972,31.533 10.144,32.011 10.435,32.319L10.509,32.39L10.435,32.464Z" style="fill:url(#_Linear7);"/><path d="M10.435,32.465L10.435,32.464L10.509,32.39L10.435,32.465Z" style="fill:url(#_Linear8);"/><path d="M32.947,20.518C33.024,20.35 33.062,20.176 33.062,20.003C33.062,20.002 33.063,20.002 33.063,20.002C33.063,20.176 33.024,20.349 32.947,20.518Z" style="fill-rule:nonzero;"/><path d="M27.121,24.225L27.028,24.132L32.014,21.299C32.648,20.939 33.003,20.475 33.062,20.003C33.062,20.176 33.024,20.35 32.947,20.518C32.792,20.859 32.481,21.18 32.014,21.445L27.121,24.225Z" style="fill:url(#_Linear9);"/><path d="M33.063,20.001L33.062,20.001C33.062,19.478 32.713,18.955 32.014,18.558L27.121,15.778L27.121,15.777L32.014,18.558C32.713,18.955 33.063,19.478 33.063,20.001Z" style="fill:#404040;fill-rule:nonzero;"/><path d="M33.062,20.001C33.003,19.527 32.648,19.063 32.014,18.704L27.028,15.871L27.121,15.778L32.014,18.558C32.713,18.955 33.062,19.478 33.062,20.001Z" style="fill:url(#_Linear10);"/><path d="M9.972,8.938L9.972,8.937L9.972,8.938ZM9.976,8.776C9.977,8.775 9.977,8.774 9.977,8.773C9.977,8.774 9.977,8.775 9.976,8.776ZM9.977,8.771L9.977,8.766L9.977,8.771ZM9.977,8.765C10.035,7.738 10.593,7.145 11.383,7.141C11.041,7.143 10.743,7.255 10.509,7.466L10.506,7.469C10.482,7.491 10.458,7.514 10.435,7.538C10.173,7.816 10.007,8.232 9.977,8.765Z" style="fill:#404040;fill-rule:nonzero;"/><path d="M9.972,9.09L9.972,8.937C9.972,8.882 9.974,8.828 9.976,8.776C9.977,8.775 9.977,8.774 9.977,8.773L9.977,8.765C10.007,8.232 10.173,7.816 10.435,7.538L10.508,7.612C10.173,7.914 9.972,8.42 9.972,9.09ZM10.506,7.469L10.509,7.466C10.508,7.467 10.507,7.468 10.506,7.469Z" style="fill:url(#_Linear11);"/><path d="M11.383,7.141L11.387,7.141L11.383,7.141Z" style="fill:#404040;fill-rule:nonzero;"/><path d="M27.028,15.871L12.513,7.624C12.111,7.395 11.73,7.287 11.391,7.287C11.045,7.287 10.744,7.4 10.508,7.612L10.435,7.538C10.458,7.514 10.482,7.491 10.506,7.469L10.509,7.466C10.743,7.255 11.041,7.143 11.383,7.141L11.391,7.141C11.73,7.141 12.111,7.249 12.513,7.478L27.121,15.778L27.028,15.871Z" style="fill:url(#_Linear12);"/><g><path d="M41.348,13L41.348,7L42.287,7L45.203,11.668L45.236,11.668L45.203,10.512L45.203,7L45.974,7L45.974,13L45.169,13L42.119,8.107L42.085,8.107L42.119,9.263L42.119,13L41.348,13Z" style="fill:#fff;fill-rule:nonzero;"/><path d="M41.348,13L41.448,13L41.448,7.1L42.231,7.1L45.147,11.768L45.339,11.768L45.303,10.51L45.303,7.1L45.874,7.1L45.874,12.9L45.225,12.9L42.174,8.007L41.983,8.007L42.019,9.265L42.019,12.9L41.348,12.9L41.348,13L41.448,13L41.348,13L41.348,13.1L42.219,13.1L42.219,9.262L42.185,8.104L42.085,8.107L42.085,8.207L42.119,8.207L42.119,8.107L42.034,8.16L45.114,13.1L46.074,13.1L46.074,6.9L45.103,6.9L45.103,10.513L45.136,11.671L45.236,11.668L45.236,11.568L45.203,11.568L45.203,11.668L45.287,11.615L42.342,6.9L41.248,6.9L41.248,13.1L41.348,13.1L41.348,13Z" style="fill:#fff;fill-rule:nonzero;"/><path d="M49.635,13L48.865,13L48.865,10.21L46.845,7L47.751,7L49.234,9.439L49.267,9.439L50.716,7L51.622,7L49.635,10.21L49.635,13Z" style="fill:#fff;fill-rule:nonzero;"/><path d="M49.635,13L49.635,12.9L48.965,12.9L48.965,10.181L47.026,7.1L47.694,7.1L49.178,9.539L49.324,9.539L50.773,7.1L51.442,7.1L49.535,10.181L49.535,13L49.635,13L49.635,12.9L49.635,13L49.735,13L49.735,10.238L51.801,6.9L50.659,6.9L49.181,9.388L49.267,9.439L49.267,9.339L49.234,9.339L49.234,9.439L49.319,9.387L47.807,6.9L46.664,6.9L48.765,10.239L48.765,13.1L49.735,13.1L49.735,13L49.635,13Z" style="fill:#fff;fill-rule:nonzero;"/><path d="M52.493,13L52.493,7L53.431,7L56.347,11.668L56.38,11.668L56.347,10.512L56.347,7L57.119,7L57.119,13L56.314,13L53.263,8.107L53.23,8.107L53.263,9.263L53.263,13L52.493,13Z" style="fill:#fff;fill-rule:nonzero;"/><path d="M52.493,13L52.593,13L52.593,7.1L53.376,7.1L56.292,11.768L56.483,11.768L56.447,10.51L56.447,7.1L57.019,7.1L57.019,12.9L56.369,12.9L53.319,8.007L53.127,8.007L53.163,9.265L53.163,12.9L52.493,12.9L52.493,13L52.593,13L52.493,13L52.493,13.1L53.363,13.1L53.363,9.262L53.33,8.104L53.23,8.107L53.23,8.207L53.263,8.207L53.263,8.107L53.178,8.16L56.258,13.1L57.219,13.1L57.219,6.9L56.247,6.9L56.247,10.513L56.28,11.671L56.38,11.668L56.38,11.568L56.347,11.568L56.347,11.668L56.432,11.615L53.487,6.9L52.393,6.9L52.393,13.1L52.493,13.1L52.493,13Z" style="fill:#fff;fill-rule:nonzero;"/><path d="M59.213,6.531L58.543,6.531L58.979,5.458L59.817,5.458L59.213,6.531ZM58.493,13L58.493,7L59.263,7L59.263,13L58.493,13Z" style="fill:#fff;fill-rule:nonzero;"/><path d="M59.213,6.531L59.213,6.431L58.691,6.431L59.046,5.558L59.646,5.558L59.126,6.482L59.213,6.531L59.213,6.431L59.213,6.531L59.301,6.58L59.988,5.358L58.912,5.358L58.394,6.631L59.272,6.631L59.301,6.58L59.213,6.531ZM58.493,13L58.593,13L58.593,7.1L59.163,7.1L59.163,12.9L58.493,12.9L58.493,13L58.593,13L58.493,13L58.493,13.1L59.363,13.1L59.363,6.9L58.393,6.9L58.393,13.1L58.493,13.1L58.493,13Z" style="fill:#fff;fill-rule:nonzero;"/><path d="M62.649,13L62.649,7L63.587,7L66.503,11.668L66.537,11.668L66.503,10.512L66.503,7L67.275,7L67.275,13L66.47,13L63.419,8.107L63.386,8.107L63.419,9.263L63.419,13L62.649,13Z" style="fill:#fff;fill-rule:nonzero;"/><path d="M62.649,13L62.749,13L62.749,7.1L63.532,7.1L66.448,11.768L66.64,11.768L66.603,10.51L66.603,7.1L67.175,7.1L67.175,12.9L66.526,12.9L63.475,8.007L63.283,8.007L63.319,9.265L63.319,12.9L62.649,12.9L62.649,13L62.749,13L62.649,13L62.649,13.1L63.519,13.1L63.519,9.262L63.486,8.104L63.386,8.107L63.386,8.207L63.419,8.207L63.419,8.107L63.335,8.16L66.415,13.1L67.375,13.1L67.375,6.9L66.403,6.9L66.403,10.513L66.437,11.671L66.537,11.668L66.537,11.568L66.503,11.568L66.503,11.668L66.588,11.615L63.643,6.9L62.549,6.9L62.549,13.1L62.649,13.1L62.649,13Z" style="fill:#fff;fill-rule:nonzero;"/><path d="M69.847,10.654L71.841,10.654L70.861,7.947L70.828,7.947L69.847,10.654ZM68.146,13L70.409,7L71.28,7L73.543,13L72.688,13L72.11,11.374L69.587,11.374L69.001,13L68.146,13Z" style="fill:#fff;fill-rule:nonzero;"/><path d="M69.847,10.654L69.847,10.754L71.984,10.754L70.931,7.847L70.758,7.847L69.705,10.754L69.847,10.754L69.847,10.654L69.941,10.688L70.922,7.981L70.828,7.947L70.828,8.047L70.861,8.047L70.861,7.947L70.767,7.981L71.699,10.554L69.847,10.554L69.847,10.654L69.941,10.688L69.847,10.654ZM68.146,13L68.24,13.036L70.478,7.1L71.211,7.1L73.398,12.9L72.759,12.9L72.18,11.274L69.517,11.274L68.93,12.9L68.146,12.9L68.146,13L68.24,13.036L68.146,13L68.146,13.1L69.071,13.1L69.658,11.474L72.039,11.474L72.617,13.1L73.687,13.1L71.349,6.9L70.34,6.9L68.001,13.1L68.146,13.1L68.146,13Z" style="fill:#fff;fill-rule:nonzero;"/></g></g></g><defs><linearGradient id="_Linear1" x1="0" y1="0" x2="1" y2="0" gradientUnits="userSpaceOnUse" gradientTransform="matrix(-16.7825,-16.7825,16.7825,-16.7825,21.7998,8.7097)"><stop offset="0" style="stop-color:#00a0ff;stop-opacity:1"/><stop offset="1" style="stop-color:#00e2ff;stop-opacity:1"/></linearGradient><linearGradient id="_Linear2" x1="0" y1="0" x2="1" y2="0" gradientUnits="userSpaceOnUse" gradientTransform="matrix(-24.197,2.96328e-15,-2.96328e-15,-24.197,33.8344,20.0014)"><stop offset="0" style="stop-color:#ffdf00;stop-opacity:1"/><stop offset="1" style="stop-color:#ff9c00;stop-opacity:1"/></linearGradient><linearGradient id="_Linear3" x1="0" y1="0" x2="1" y2="0" gradientUnits="userSpaceOnUse" gradientTransform="matrix(-22.7583,-22.7583,22.7583,-22.7583,24.827,22.2961)"><stop offset="0" style="stop-color:#ff3a44;stop-opacity:1"/><stop offset="1" style="stop-color:#c31162;stop-opacity:1"/></linearGradient><linearGradient id="_Linear4" x1="0" y1="0" x2="1" y2="0" gradientUnits="userSpaceOnUse" gradientTransform="matrix(10.1625,-10.1625,10.1625,10.1625,7.2973,0.1762)"><stop offset="0" style="stop-color:#31a070;stop-opacity:1"/><stop offset="1" style="stop-color:#00ef75;stop-opacity:1"/></linearGradient><linearGradient id="_Linear5" x1="0" y1="0" x2="1" y2="0" gradientUnits="userSpaceOnUse" gradientTransform="matrix(-24.197,2.96328e-15,-2.96328e-15,-24.197,33.8344,20.0014)"><stop offset="0" style="stop-color:#ccb300;stop-opacity:1"/><stop offset="1" style="stop-color:#cc7c00;stop-opacity:1"/></linearGradient><linearGradient id="_Linear6" x1="0" y1="0" x2="1" y2="0" gradientUnits="userSpaceOnUse" gradientTransform="matrix(-22.7583,-22.7583,22.7583,-22.7583,24.827,22.2961)"><stop offset="0" style="stop-color:#cc2d36;stop-opacity:1"/><stop offset="1" style="stop-color:#9c0e4d;stop-opacity:1"/></linearGradient><linearGradient id="_Linear7" x1="0" y1="0" x2="1" y2="0" gradientUnits="userSpaceOnUse" gradientTransform="matrix(-16.7825,-16.7825,16.7825,-16.7825,21.7998,8.7097)"><stop offset="0" style="stop-color:#008cdf;stop-opacity:1"/><stop offset="1" style="stop-color:#00c6df;stop-opacity:1"/></linearGradient><linearGradient id="_Linear8" x1="0" y1="0" x2="1" y2="0" gradientUnits="userSpaceOnUse" gradientTransform="matrix(-22.7583,-22.7583,22.7583,-22.7583,24.827,22.2961)"><stop offset="0" style="stop-color:#df333b;stop-opacity:1"/><stop offset="1" style="stop-color:#aa0e56;stop-opacity:1"/></linearGradient><linearGradient id="_Linear9" x1="0" y1="0" x2="1" y2="0" gradientUnits="userSpaceOnUse" gradientTransform="matrix(-24.197,2.96328e-15,-2.96328e-15,-24.197,33.8344,20.0014)"><stop offset="0" style="stop-color:#dfc400;stop-opacity:1"/><stop offset="1" style="stop-color:#df8900;stop-opacity:1"/></linearGradient><linearGradient id="_Linear10" x1="0" y1="0" x2="1" y2="0" gradientUnits="userSpaceOnUse" gradientTransform="matrix(-24.197,2.96328e-15,-2.96328e-15,-24.197,33.8344,20.0014)"><stop offset="0" style="stop-color:#ffe83f;stop-opacity:1"/><stop offset="1" style="stop-color:#ffb53f;stop-opacity:1"/></linearGradient><linearGradient id="_Linear11" x1="0" y1="0" x2="1" y2="0" gradientUnits="userSpaceOnUse" gradientTransform="matrix(-16.7825,-16.7825,16.7825,-16.7825,21.7998,8.7097)"><stop offset="0" style="stop-color:#3fb8ff;stop-opacity:1"/><stop offset="1" style="stop-color:#3fe9ff;stop-opacity:1"/></linearGradient><linearGradient id="_Linear12" x1="0" y1="0" x2="1" y2="0" gradientUnits="userSpaceOnUse" gradientTransform="matrix(10.1625,-10.1625,10.1625,10.1625,7.2973,0.1762)"><stop offset="0" style="stop-color:#64b895;stop-opacity:1"/><stop offset="1" style="stop-color:#3ff497;stop-opacity:1"/></linearGradient></defs></svg>