<svg width="159" height="24" viewBox="0 0 159 24" fill="none" xmlns="http://www.w3.org/2000/svg">
<path fill-rule="evenodd" clip-rule="evenodd" d="M119.734 0.321289H118.934V23.6773H119.734V0.321289ZM62.0117 5.00439V18.4684H64.6469V10.478L74.8653 18.9948V5.53079H72.2309V13.5212L62.0117 5.00439ZM37.0386 14.8093L44.4162 5.00449L44.417 18.4677H41.7818V12.5557L37.0386 18.9949L32.2954 12.5565V18.4685H29.6602V5.00449L37.0386 14.8093ZM129.764 9.51176L132.663 5.29736V10.7406H131.814V7.87176L129.764 10.9158L127.714 7.87176V10.7414H126.836V5.29736L129.764 9.51176ZM134.215 8.10685C134.215 6.61405 135.444 5.38525 136.967 5.38525C138.489 5.38525 139.719 6.61405 139.719 8.10685C139.719 9.59965 138.489 10.8293 136.967 10.8293C135.444 10.8293 134.215 9.59965 134.215 8.10685ZM136.97 9.98053C135.945 9.98053 135.125 9.13173 135.125 8.10693C135.125 7.05333 135.945 6.23413 136.97 6.23413C137.994 6.23413 138.814 7.08213 138.814 8.10693C138.843 9.16053 137.995 9.98053 136.97 9.98053ZM141.273 10.7414V5.29736L145.518 9.10136V5.50136H146.368V10.9174L142.122 7.14136V10.7414H141.273ZM152.048 5.5022H148.184V10.7414H152.048V9.951H149.032V8.487H151.902V7.727H149.032V6.2926H152.048V5.5022ZM157.228 5.5022H158.165L156.027 8.6926V10.7406H155.178V8.6926L153.012 5.5022H153.949L155.588 7.9022L157.228 5.5022ZM129.59 13.2877H126.867V18.5269H129.648C130.615 18.5269 131.317 17.8237 131.317 16.9749C131.317 16.3605 130.995 15.9213 130.468 15.7165C130.848 15.5405 131.112 15.1317 131.112 14.6341C131.112 13.8725 130.497 13.2877 129.59 13.2877ZM127.715 14.0485V15.4533H129.414C129.911 15.4533 130.234 15.1317 130.234 14.7509C130.234 14.3701 129.941 14.0485 129.414 14.0485H127.715ZM127.715 17.7653V16.1853H129.502C130.058 16.1853 130.409 16.5365 130.409 16.9757C130.409 17.4141 130.058 17.7653 129.502 17.7653H127.715ZM132.019 18.5269L135.064 13.0829L138.168 18.5269H137.202L136.529 17.3269H133.659L132.986 18.5269H132.019ZM134.039 16.5948L135.063 14.7212L136.089 16.5948H134.039ZM139.398 18.4973V13.0829L143.643 16.8877V13.2877H144.493V18.7021L140.247 14.9269V18.4973H139.398ZM150.991 13.2876H149.791L147.156 15.6876V13.2876H146.277V18.4972H147.156V16.77L148.064 15.9508L150.054 18.4972H151.109L148.678 15.3652L150.991 13.2876ZM53.4034 5.23877C49.5978 5.23877 46.5234 8.28277 46.5234 11.9996C46.5234 15.746 49.5978 18.7604 53.4034 18.7604C57.2098 18.7604 60.2842 15.7164 60.2842 11.9996C60.2842 8.25317 57.2098 5.23877 53.4042 5.23877H53.4034ZM49.277 11.9997C49.277 14.2829 51.1218 16.1557 53.4058 16.1557H53.405C55.689 16.1557 57.533 14.3117 57.533 11.9997C57.533 9.71649 55.689 7.84369 53.405 7.84369C51.1218 7.84369 49.277 9.68769 49.277 11.9997ZM77.4722 5.53169H87.4562L87.457 7.93169H80.1954V10.8293H87.1346V13.1413H80.1954V16.0973H87.4562V18.4677H77.4722V5.53169ZM101.891 5.53169H88.9498V7.93169H92.8442V18.4677H95.5378V7.93169H100.486L101.891 5.53169ZM97.293 18.4972L104.994 5.00439L112.752 18.4972H109.766L108.36 16.0092H101.685L100.279 18.4972H97.293ZM102.859 13.8724L104.967 10.0972L107.105 13.8732H102.859V13.8724Z" fill="#140757"/>
<path fill-rule="evenodd" clip-rule="evenodd" d="M10.2192 10.156L20.4977 0.234375H20.5856V23.8832L12.1224 15.688L14.0265 13.8432L17.9496 17.6192V6.38077L12.1233 12L10.1616 13.872L0.03125 23.6784V0.321575L10.2192 10.156ZM2.48988 6.3824L2.48828 6.38086H2.48988V6.3824ZM2.48988 6.3824V17.6193L8.31628 12.0001L2.48988 6.3824Z" fill="url(#paint0_linear)"/>
<defs>
<linearGradient id="paint0_linear" x1="10.3084" y1="35.7076" x2="33.7266" y2="15.3536" gradientUnits="userSpaceOnUse">
<stop stop-color="#140757"/>
<stop offset="1" stop-color="#ED1C24"/>
</linearGradient>
</defs>
</svg>
