<svg enable-background="new 0 0 94 43" viewBox="0 0 94 43" xmlns="http://www.w3.org/2000/svg"><g fill="#09c"><path d="m79.5143433 21.8823528c1.6606445-.3759136 3.1956253-.5012188 4.8249512-.5012188 3.7598648 0 9.2743607 1.3783512 9.2743607 6.4227715 0 1.7233009-.7521896 3.7598648-1.5979996 4.9502602-2.6317596 3.6658859-6.0783615 6.3919907-10.0261841 8.0836029-.1566315.0626526-.6891785.282299-.7831573.3449516-1.0028.5012169-2.349823 1.0650864-3.6658859 1.2530441-.3759157.3445892-.9088212.5642357-1.3787157.5642357-.6891708 0-1.7233047-.5015831-1.7233047-1.5979996 0-.0939751.0313263-.3132591.0626526-.4389267-.0313263-.1253052-.0313263-.3759155-.0313263-.532547l.1253052-.407238c.0626526-.1253052.2196503-.4385681.3136292-.532547.3445892-1.942585.9397812-11.8434677 1.0337601-14.1931114-.0939789-.1879559-.1253052-.3762779-.1253052-.6582127 0-.2192822.0626526-.4698925.1879578-.7831535.0313263-.4072399.0313263-.8771324.0313263-1.3160629v-.4698925c0-1.0650883.8461685-1.6606483 1.7233047-1.6606483.7204971 0 1.4726944.4385662 1.7233047 1.2534084v.2192841h.0313263zm1.6293182 2.88237c-.4076004.0939789-.9714737.1566296-1.6919708.3762779-.0939789 2.6315784-.6265259 12.0312443-.940155 13.7541828 3.4779358-1.0964165 7.7390213-4.2610855 9.524971-6.3289757 1.0028-1.253046 2.0365677-3.0703259 2.0365677-4.6996498 0-2.6629047-2.7257385-3.38377-5.6084747-3.38377-1.0964127 0-2.2558441.1253033-3.1016541.2506084-.0939789.0313264-.1879578.0313264-.2192841.0313264z"/><path d="m69.3850632 39.3027878c.4072418.6265221.5638733 1.1903915.5638733 1.5976334 0 .8461685-.5638733 1.3160591-1.0341263 1.4726906-.9084549.3132629-2.1931915-.0939789-2.6004333-.9084587-.0939789-.2819328-.0939789-.7835159-.0939789-1.410038 0-.4698944 0-1.1281052.0313263-1.8486099.1253052-4.9189301.9397812-14.0991325 1.5979996-16.3549786.3759079-1.2534103 1.0024338-1.8799324 2.5377808-1.3787155.5951996.2506104.8771286.8148441.8771286 1.7233028 0 .5638714-.0939789 1.3473892-.1879578 2.0365639-.1566238.9714756-.3132553 1.942585-.4385605 2.8827343-.3132629 1.785408-.6265259 3.727993-.8144836 5.5452747-.2819368 2.1931953-.4385682 4.4494056-.4385682 6.642601z"/><path d="m34.0001678 16.4894028c-1.7349777 1.8814011-4.7988834 3.7632217-8.7259254 3.7632217-3.0479298 0-5.6762352-1.1863346-7.3410816-2.5020256-9.9533577 1.0467949-17.3498287 2.5259724-17.3498287 2.5259724v4.0262432l52.7326698-.006546.0000496-8.3082895c0-.0000001-8.9964447-.0526763-19.3158837.5014238"/><path d="m27.2759075 18.2258663c5.0363636 0 9.1158123-4.08113 9.1158123-9.111311 0-5.0323629-4.0794487-9.1145553-9.1158123-9.1145553-5.0290623 0-9.1112823 4.0821924-9.1112823 9.1145554 0 5.0301809 4.08222 9.1113109 9.1112823 9.1113109"/></g><path d="m40.9381027 28.1383228h-.1751251v13.8732967h7.7852402c2.8900681 0 5.5641403-.4781799 5.5641403-3.9383202 0-1.2440758-.9376106-2.6498718-2.5289116-3.1208038 1.5534821-.5707741 2.286171-1.6368713 2.286171-3.3049908 0-2.2636242-1.6641121-3.509182-4.6855278-3.509182h-8.245987m6.089901 8.3104421c1.1893883 0 1.6984444.360096 1.6984444 1.1997643 0 1.1307755-1.3293152 1.216156-1.7415276 1.216156h-1.132534v-2.4159203zm.0165062-5.3978558c1.0277443 0 1.5482178.3818874 1.5482178 1.1376324 0 .9247131-.9030876 1.1180191-1.663784 1.1180191h-1.0765572v-2.2556515z" fill="#036"/><path d="m24.9306812 35.0699081c0 4.6293831 2.6428242 7.1695366 7.4484501 7.1695366 4.8354225 0 7.5007057-2.5401535 7.5007057-7.1695366 0-4.5516701-2.7348633-7.163414-7.5007057-7.163414-4.735857 0-7.4484501 2.611744-7.4484501 7.163414m5.6131783 0c0-2.3570595.6165981-3.5553684 1.8352718-3.5553684 1.6422997 0 1.8610344 2.0362148 1.8828278 3.5607929-.0217934 1.7146149-.1856384 3.5549774-1.8828278 3.5549774-1.2366905.0000001-1.8352718-1.1637878-1.8352718-3.5604019" fill="#036"/><path d="m12.2379026 32.4581337c0 3.4452591 2.8277416 4.0429993 4.8976908 4.4753838 1.111866.2303429 1.9929943.4214706 1.9929943.947567 0 .5497627-1.0693169.7492256-2.0730839.7492256-1.5257015 0-3.1375074-.321209-4.43647-.8764l-.2518024-.105381v3.9154625l.1438751.0345192c1.8966751.4505386 3.5277557.640934 5.4434834.640934 1.9742775 0 6.5631523-.4567184 6.5631523-4.7064247 0-3.4361954-2.8457546-4.0026321-4.923708-4.4157677-1.0986042-.2165527-1.9677029-.3880386-1.9677029-.8890991 0-.6271439 1.0050278-.7136135 1.9809628-.7136135 1.2962208 0 2.6190186.2336178 3.8276768.6678181l.2381516.090107v-3.8710939l-.1413021-.0239735c-1.4248753-.3041172-2.9781876-.4709034-4.3739967-.4709034-4.591983 0-6.9199211 1.5322457-6.9199211 4.5516396" fill="#036"/><path d="m4.1072559 25.6686363-1.5692565 1.4370461.1140821.0973816c.0430279.0384922.9194255.7702904 2.3535628 1.1638145-3.1472969.9286862-5.0056443 3.3253574-5.0056443 6.5122681 0 4.5174828 3.0590334 7.3210487 7.9859862 7.3210487 1.6210942 0 3.1958337-.417469 3.6413064-.5472183l.0973816-.0297623v-3.878006l-.1804113.0646515c-.9830399.3499374-1.8318014.5166969-2.6763935.5166969-2.1615705 0-3.4538465-1.2582588-3.4538465-3.3685799 0-2.0074844 1.3889322-3.2516136 3.6200461-3.2516136.8447599 0 1.689579.236557 2.4785824.4949036l.1782284.0584679v-3.8598175l-.3806276-.0744972c-.6794558-.1249657-1.2464523-.2292557-1.8510733-.2968159 1.0913296-.4850864 1.8125801-1.1420212 2.1681137-1.5275173l.1040678-.1082916-.6033087-.4538097-.0835609.0882893c-.0139875.0145187-1.1396446 1.2164917-3.2196403 1.1997623-2.2164016-.0239735-3.506104-1.536581-3.5200915-1.5493088l-.0941076-.1119289" fill="#036"/></svg>