<svg enable-background="new 0 0 54 54" height="39.396965" viewBox="0 0 46 39.396964" width="46" xmlns="http://www.w3.org/2000/svg"><g fill="none"><path d="m-4.9958794-8.301519h54.0000004v54h-54.0000004z"/><g stroke="#0a7caf" stroke-miterlimit="10" transform="matrix(1.0943601 0 0 1.0943601 -7.637574 -10.943601)"><path d="m32 34h-24.01s.03 2.75.97 4c.18.189.37.35.59.49.22.15.45.26.69.35.24.08.49.141.75.17.26.03.51.02.77-.01h20.24" stroke-width="2"/><path d="m32.02 36.5h-9.14l-2.05-3h11.12"/><path d="m10 31v-17c0-1.1 1.89-3 3-3h28c1.109 0 3 1.9 3 3v6" stroke-width="2"/><path d="m39 27.5h5"/><path d="m40 41h3" stroke-width="2"/><path d="m26 15h2" stroke-width="2"/><path d="m37 37.5h9"/><path d="m36 23h11c1.109 0 1 .9 1 2v18c0 1.1.109 2-1 2h-11c-1.109 0-1-.9-1-2v-18c0-1.1-.1-2 1-2z" stroke-width="2"/></g></g></svg>